<?xml version="1.0" encoding="UTF-8"?>
<svg version="1.1" xmlns="http://www.w3.org/2000/svg" width="500" height="500">
<path d="M0 0 C6.9772398 0.46713714 12.7987754 3.2273043 19.125 6.0625 C20.24430908 6.56056152 21.36361816 7.05862305 22.5168457 7.57177734 C30.47517501 11.17355998 37.74787566 15.12272558 45 20 C46.66095703 21.00740234 46.66095703 21.00740234 48.35546875 22.03515625 C57.16710418 27.38428815 64.76170178 33.72112671 72.41552734 40.60449219 C74.54782192 42.48248846 76.77207738 44.23737804 79 46 C83.09899953 49.87127733 86.81585629 54.08161837 90.55859375 58.29296875 C92.12577903 60.03066379 93.72031702 61.74428763 95.34765625 63.42578125 C102.81377853 71.23182455 108.63382598 79.94610324 114.60205078 88.91796875 C116.22617911 91.33685915 117.91653263 93.70260262 119.625 96.0625 C133.7839344 116.32921003 145.39012037 138.48195439 154.08496094 161.60253906 C155.31801774 164.83322683 156.62856006 168.03018726 157.9375 171.23071289 C165.51223642 189.84022769 172.06465937 208.65496467 177.6875 227.9375 C177.9097525 228.69287048 178.132005 229.44824097 178.36099243 230.22650146 C184.93393797 252.66569285 189.71691547 275.44853606 193.5625 298.5 C193.75321075 299.6315451 193.94392151 300.76309021 194.14041138 301.92892456 C196.74341579 317.433023 199.07972746 332.95105331 200.9375 348.5625 C201.0331424 349.35591797 201.12878479 350.14933594 201.22732544 350.96679688 C204.0749224 374.93545782 205.32366268 398.85656589 205.20581055 422.99023438 C205.18714959 426.94934396 205.18530458 430.90803704 205.18554688 434.8671875 C205.18064357 437.40885619 205.17482052 439.95052331 205.16796875 442.4921875 C205.16685593 443.66393524 205.1657431 444.83568298 205.16459656 446.04293823 C205.15821671 447.13333405 205.15183685 448.22372986 205.14526367 449.34716797 C205.14145187 450.29751923 205.13764008 451.24787048 205.13371277 452.22702026 C204.9897067 455.21346588 204.54487911 458.06239822 204 461 C199.01903071 458.60913474 194.26109357 455.99294987 189.5 453.1875 C160.84472427 436.72140872 126.33815735 428.95416161 93.39453125 428.796875 C92.40520096 428.78981537 91.41587067 428.78275574 90.39656067 428.77548218 C56.5677414 428.58934887 24.31222852 431.41600173 -8.92706299 437.61651611 C-10.91729737 437.98470039 -12.90954439 438.34195445 -14.90185547 438.69873047 C-44.93969675 444.08372037 -73.86129595 452.84136394 -102.55273438 463.12719727 C-104.36123232 463.77218731 -106.17845964 464.39281988 -108 465 C-107.3691261 460.97552328 -106.08237835 457.711377 -104.3359375 454.0390625 C-103.79549805 452.8934082 -103.25505859 451.74775391 -102.69824219 450.56738281 C-101.8576123 448.80152832 -101.8576123 448.80152832 -101 447 C-99.94903678 444.75850772 -98.89954845 442.51632331 -97.8515625 440.2734375 C-97.32506104 439.14881104 -96.79855957 438.02418457 -96.25610352 436.86547852 C-91.55797453 426.81172157 -86.90398348 416.7542148 -82.71142578 406.47607422 C-80.96699809 402.2127134 -79.09894574 398.02705221 -77.15234375 393.8515625 C-73.92818023 386.90833114 -70.92821595 379.88504225 -68 372.8125 C-67.73621552 372.17572327 -67.47243103 371.53894653 -67.20065308 370.88287354 C-63.99462646 363.12241783 -60.94757019 355.36121563 -58.42431641 347.34838867 C-56.11308061 340.09832987 -53.40827789 333.00163923 -50.72521973 325.88354492 C-36.88494448 289.11789199 -24.10651581 251.64585786 -15.72851562 213.23095703 C-14.71104839 208.71850348 -13.57693328 204.23765571 -12.45117188 199.7512207 C-5.41939427 171.55263341 -0.13485385 142.89814275 3 114 C3.08613556 113.23302795 3.17227112 112.46605591 3.26101685 111.67584229 C4.84232071 97.33880369 5.34327833 83.11704059 5.31567383 68.69726562 C5.31251529 65.26660264 5.33608902 61.83680742 5.36132812 58.40625 C5.41756408 38.65844048 3.36555021 19.44372409 0 0 Z " fill="#FE6600" transform="translate(269,18)"/>
<path d="M0 0 C22.35354763 6.00611085 40.92347814 18.0763675 57.6171875 33.7734375 C59.73005118 35.74775274 61.89818951 37.59492348 64.125 39.4375 C68.29085024 43.03645103 71.61734869 47.23543657 75.01953125 51.546875 C76.82286984 53.93897136 76.82286984 53.93897136 78.63769531 55.38256836 C80 57 80 57 80.12866211 59.01098633 C80.01272705 59.77693115 79.89679199 60.54287598 79.77734375 61.33203125 C79.65335205 62.20085937 79.52936035 63.0696875 79.40161133 63.96484375 C79.24845459 64.90457031 79.09529785 65.84429687 78.9375 66.8125 C78.78756592 67.79734375 78.63763184 68.7821875 78.4831543 69.796875 C78.00711122 72.86780514 77.50453464 75.9336387 77 79 C76.79262207 80.33877197 76.79262207 80.33877197 76.58105469 81.70458984 C69.72296224 125.93177725 54.17164834 169.86221387 38.65380859 211.74633789 C36.6688148 217.10852747 34.82477221 222.49844045 33.0625 227.9375 C30.74919166 235.0285901 28.15001072 241.98973424 25.4375 248.9375 C24.89138062 250.34020142 24.89138062 250.34020142 24.33422852 251.77124023 C22.15222918 257.29796011 19.78590388 262.70713073 17.30151367 268.10375977 C14.87220762 273.50966067 12.67555109 279.01287623 10.4375 284.5 C5.81338359 295.7937944 0.97780972 306.97260838 -4.07836914 318.08007812 C-6.06313249 322.47177918 -8.00022645 326.77563179 -9.40234375 331.390625 C-9.91894781 332.9325187 -10.45531177 334.46780202 -11 336 C-11.38807831 337.09762665 -11.77615662 338.1952533 -12.17599487 339.32614136 C-16.14352331 348.83403102 -16.14352331 348.83403102 -21.07637024 351.93212891 C-24.85216198 353.33295089 -28.63217529 354.37832278 -32.54296875 355.3046875 C-33.95956266 355.68346809 -35.37486317 356.06711574 -36.78889465 356.45535278 C-40.48598829 357.4559243 -44.19716144 358.38734967 -47.91546631 359.30541992 C-51.70209412 360.25469623 -55.46970162 361.27422549 -59.24023438 362.28515625 C-64.7457431 363.74735655 -70.25624674 365.18585314 -75.78198242 366.56982422 C-76.88893967 366.84736542 -77.99589691 367.12490662 -79.13639832 367.41085815 C-82 368 -82 368 -86 368 C-84.4155799 362.76051555 -82.18677362 357.97575997 -79.8125 353.0625 C-73.57402069 340.06288804 -67.48705843 327.01223488 -61.71020508 313.80078125 C-60.80605768 311.7352827 -59.89629187 309.67231662 -58.98632812 307.609375 C-55.71671042 300.16388414 -52.65000348 292.69214261 -50 285 C-49.75145264 284.29053223 -49.50290527 283.58106445 -49.24682617 282.85009766 C-48.78702889 281.53689238 -48.32886726 280.22311296 -47.87255859 278.90869141 C-45.91829163 273.28547279 -43.90871189 267.70023415 -41.69384766 262.17407227 C-32.65294126 239.55024179 -25.19574949 216.34993777 -18.5 192.9375 C-18.25069733 192.07020264 -18.00139465 191.20290527 -17.74453735 190.30932617 C-12.2282375 171.0410723 -8.26319655 151.6953275 -4.9375 131.9375 C-4.76258026 130.90529327 -4.58766052 129.87308655 -4.40744019 128.80960083 C-1.835173 113.59306729 0.64667304 98.38243969 2 83 C2.0913623 82.00863037 2.18272461 81.01726074 2.27685547 79.99584961 C3.16583794 69.23377398 3.23807933 58.48074613 3.25 47.6875 C3.25350464 46.23772766 3.25350464 46.23772766 3.25708008 44.75866699 C3.27086468 29.63132345 2.50127647 14.94810461 0 0 Z " fill="#F4650F" transform="translate(175,114)"/>
<path d="M0 0 C6.12630674 1.86254733 11.74086907 4.14985454 17.375 7.1875 C18.11322998 7.58404785 18.85145996 7.9805957 19.61206055 8.38916016 C30.73331312 14.47870481 39.87424772 22.30880736 49 31 C49.63550781 31.58265625 50.27101563 32.1653125 50.92578125 32.765625 C52.70305364 34.44533829 54.34954543 36.19481532 56 38 C56.68835938 38.71663818 56.68835938 38.71663818 57.390625 39.44775391 C58.99105744 41.13861482 60.52761469 42.87457455 62.0625 44.625 C62.5769165 45.15649658 63.09133301 45.68799316 63.62133789 46.2355957 C66.06330778 49.13467065 67.01257597 51.04016981 66.9621582 54.88818359 C66.46542733 58.30930462 65.7772621 61.63178499 65 65 C64.78110107 66.06524902 64.56220215 67.13049805 64.33666992 68.22802734 C58.2611925 97.26139868 49.89242684 125.88318962 40.5 154 C40.24465485 154.76475647 39.98930969 155.52951294 39.72622681 156.31744385 C35.51010779 168.89057702 35.51010779 168.89057702 33.42944336 173.69677734 C32.37183262 176.14075228 31.42142858 178.51397103 30.59765625 181.0390625 C25.90662653 195.07187203 20.29833369 208.68929079 14.55078125 222.31494141 C13.04343354 225.89679063 11.55112914 229.48455609 10.0625 233.07421875 C5.59164678 243.81118016 1.02702011 254.40994229 -4.34375 264.73046875 C-6.12058959 267.98879012 -6.12058959 267.98879012 -7.08203125 271.71484375 C-9.57272965 275.98098907 -11.54922038 276.39025312 -16.17504883 277.64819336 C-17.16915771 277.88803955 -18.1632666 278.12788574 -19.1875 278.375 C-21.34129173 278.9460646 -23.49492901 279.51771196 -25.6484375 280.08984375 C-26.81729492 280.39003418 -27.98615234 280.69022461 -29.19042969 280.99951172 C-33.34486961 282.09057137 -37.47353323 283.25518075 -41.6015625 284.44140625 C-43.06094886 284.85955491 -44.52034012 285.27768647 -45.97973633 285.69580078 C-46.6970694 285.90142639 -47.41440247 286.107052 -48.1534729 286.31890869 C-51.61749249 287.31139851 -55.08229079 288.30058056 -58.55078125 289.27734375 C-59.72294189 289.60984131 -60.89510254 289.94233887 -62.1027832 290.28491211 C-65 291 -65 291 -68 291 C-67.32842166 286.145448 -65.38898399 282.04047108 -63.375 277.625 C-63.01817139 276.83061523 -62.66134277 276.03623047 -62.29370117 275.21777344 C-60.3096998 270.81825589 -58.27020966 266.44850446 -56.19067383 262.09350586 C-53.21927457 255.85579783 -50.72294959 249.58172355 -48.48046875 243.04296875 C-47.06429921 239.05451119 -45.40909126 235.18153864 -43.74609375 231.29077148 C-38.84459196 219.82160301 -34.41975694 208.2294585 -30.1875 196.5 C-29.91518555 195.74853699 -29.64287109 194.99707397 -29.36230469 194.22283936 C-23.94573057 179.24579906 -19.21414527 164.1057529 -14.88745117 148.78027344 C-14.30811276 146.73450772 -13.71950508 144.69154181 -13.13085938 142.6484375 C-11.16980419 135.76233968 -9.50895785 128.93761756 -8.44116211 121.84716797 C-7.99277127 118.95334728 -7.44042953 116.09881328 -6.8515625 113.23046875 C-2.35773699 91.18741705 1.43550246 68.5308149 2 46 C2.0306958 44.98534668 2.0306958 44.98534668 2.06201172 43.95019531 C2.33580738 33.93515715 1.79724724 24.12678772 0.71166992 14.16723633 C0.19430106 9.40679784 -0.1036879 4.78908472 0 0 Z " fill="#D44002" transform="translate(93,191)"/>
<path d="M0 0 C0 0.33 0 0.66 0 1 C-1.02456299 0.93071289 -2.04912598 0.86142578 -3.10473633 0.79003906 C-15.96604281 -0.02951025 -28.80221466 -0.23928345 -41.6875 -0.25 C-42.75705933 -0.25167175 -43.82661865 -0.25334351 -44.92858887 -0.25506592 C-66.2326346 -0.25705198 -87.00001452 1.08473478 -108.03613281 4.61962891 C-111.05770831 5.00740606 -113.95717761 5.06516286 -117 5 C-117 4.34 -117 3.68 -117 3 C-115.95199219 2.86722656 -114.90398437 2.73445313 -113.82421875 2.59765625 C-112.44529222 2.41942765 -111.06638707 2.24103359 -109.6875 2.0625 C-108.99720703 1.97548828 -108.30691406 1.88847656 -107.59570312 1.79882812 C-104.59857712 1.40789865 -101.87549881 0.9584996 -99 0 C-97.39092147 -0.20327431 -95.77637238 -0.36472399 -94.16015625 -0.5 C-93.19021729 -0.5820166 -92.22027832 -0.6640332 -91.22094727 -0.74853516 C-90.17865967 -0.83151855 -89.13637207 -0.91450195 -88.0625 -1 C-86.44202759 -1.13027588 -86.44202759 -1.13027588 -84.78881836 -1.26318359 C-56.47433441 -3.48270267 -28.17404235 -4.28399822 0 0 Z " fill="#EB8E4C" transform="translate(391,447)"/>
<path d="M0 0 C7.08904774 1.90219316 13.54428043 4.45387056 20.125 7.6875 C20.98609375 8.10322266 21.8471875 8.51894531 22.734375 8.94726562 C24.82619933 9.95831405 26.91454414 10.97589795 29 12 C25.73571614 12.92360532 24.16629648 12.99236046 21 11.6875 C20.30648437 11.40390625 19.61296875 11.1203125 18.8984375 10.828125 C15.76802288 9.46259434 13.43194263 8.43194263 11 6 C9.01276732 5.29618843 7.01222047 4.6288189 5 4 C4.34 3.67 3.68 3.34 3 3 C3.13277344 4.12535156 3.26554688 5.25070313 3.40234375 6.41015625 C5.7407468 26.56506875 7.26200169 46.76316344 5 67 C4.67 67 4.34 67 4 67 C3.97812622 65.28792358 3.97812622 65.28792358 3.95581055 63.54125977 C3.66282858 42.21327332 3.36455063 21.11152652 0 0 Z " fill="#E58E59" transform="translate(175,114)"/>
<path d="M0 0 C1.14266516 3.35897545 0.85911331 5.30450352 -0.3125 8.625 C-0.70888672 9.78902344 -0.70888672 9.78902344 -1.11328125 10.9765625 C-2 13 -2 13 -4 15 C-3.67958603 17.60280568 -3.67958603 17.60280568 -3 20 C-2.67 19.34 -2.34 18.68 -2 18 C-1.67 19.32 -1.34 20.64 -1 22 C0.396478 21.54363464 1.7921508 21.08480512 3.1875 20.625 C4.01378906 20.35300781 4.84007812 20.08101563 5.69140625 19.80078125 C8.0826135 19.01049422 8.0826135 19.01049422 10.625 17.8125 C13.79961811 16.72644644 16.67242039 16.86950668 20 17 C16.81331928 19.12445382 13.98480596 20.14928006 10.36328125 21.3828125 C9.40412056 21.71150833 9.40412056 21.71150833 8.42558289 22.04684448 C6.38925299 22.74363632 4.3509332 23.43438854 2.3125 24.125 C0.92890081 24.59725903 -0.45456439 25.06991079 -1.83789062 25.54296875 C-5.22371937 26.69986846 -8.61135844 27.85136158 -12 29 C-11.25534669 24.92160435 -10.03882696 21.6278483 -8.25 17.875 C-7.71632812 16.74449219 -7.18265625 15.61398437 -6.6328125 14.44921875 C-6.09398437 13.31097656 -5.55515625 12.17273438 -5 11 C-4.03741527 8.8977748 -3.07868353 6.7937782 -2.125 4.6875 C-1.71507812 3.78386719 -1.30515625 2.88023437 -0.8828125 1.94921875 C-0.59148437 1.30597656 -0.30015625 0.66273438 0 0 Z " fill="#F17421" transform="translate(173,454)"/>
<path d="M0 0 C1.4606285 2.64738916 2 3.89448334 2 7 C1.38125 7.04125 0.7625 7.0825 0.125 7.125 C-2.29525765 7.84080006 -2.29525765 7.84080006 -3.25 10.6875 C-4.13051972 13.9624396 -4.13051972 13.9624396 -3.9375 17.25 C-3.958125 18.1575 -3.97875 19.065 -4 20 C-4.99 20.66 -5.98 21.32 -7 22 C-7 22.66 -7 23.32 -7 24 C-7.99 24 -8.98 24 -10 24 C-10 25.98 -10 27.96 -10 30 C-10.66 30 -11.32 30 -12 30 C-11.67 30.66 -11.34 31.32 -11 32 C-9.68 32 -8.36 32 -7 32 C-7 31.34 -7 30.68 -7 30 C-0.565 29.505 -0.565 29.505 6 29 C2.30466064 30.84766968 -1.04230464 31.99303205 -5 33.125 C-6.8253125 33.65480469 -6.8253125 33.65480469 -8.6875 34.1953125 C-12 35 -12 35 -16 35 C-14.38849075 29.65702815 -12.09971937 24.76410821 -9.6875 19.75 C-9.08627319 18.49062622 -9.08627319 18.49062622 -8.47290039 17.20581055 C-5.71240115 11.438628 -2.91207107 5.69244043 0 0 Z " fill="#ED9058" transform="translate(105,447)"/>
<path d="M0 0 C0 0.33 0 0.66 0 1 C-0.55186478 1.10609085 -1.10372955 1.2121817 -1.6723175 1.32148743 C-7.46555839 2.43605162 -13.25762464 3.55657572 -19.04907227 4.68041992 C-21.20470667 5.097936 -23.36062679 5.51397992 -25.5168457 5.9284668 C-28.63310544 6.52777525 -31.74826663 7.13253846 -34.86328125 7.73828125 C-35.81270096 7.91966141 -36.76212067 8.10104156 -37.74031067 8.28791809 C-43.46723471 9.40800466 -49.0166377 10.8001711 -54.59465027 12.5209198 C-57.13443558 13.02677591 -58.57745083 12.83575762 -61 12 C-56.68952488 9.69439703 -52.93881997 8 -48 8 C-47.67 7.34 -47.34 6.68 -47 6 C-46.36191406 6.01160156 -45.72382813 6.02320313 -45.06640625 6.03515625 C-44.24011719 6.04417969 -43.41382813 6.05320312 -42.5625 6.0625 C-41.32693359 6.07990234 -41.32693359 6.07990234 -40.06640625 6.09765625 C-38.00836062 6.23267348 -38.00836062 6.23267348 -37 5 C-34.9427083 4.68076508 -32.88386479 4.48838648 -30.8125 4.28125 C-28.9832467 4.18001957 -28.9832467 4.18001957 -28 3 C-26.31391034 2.92794489 -24.62499341 2.91613932 -22.9375 2.9375 C-22.01839844 2.94652344 -21.09929687 2.95554687 -20.15234375 2.96484375 C-19.44207031 2.97644531 -18.73179687 2.98804688 -18 3 C-18 2.34 -18 1.68 -18 1 C-11.96445452 0.30739642 -6.07593562 -0.11251733 0 0 Z " fill="#EC721E" transform="translate(274,452)"/>
<path d="M0 0 C0.33 0 0.66 0 1 0 C2.09857724 6.1676029 2.11539104 12.18415123 2.0625 18.4375 C2.05798828 19.45521484 2.05347656 20.47292969 2.04882812 21.52148438 C2.03712437 24.01438509 2.02072848 26.50716074 2 29 C1.34 29 0.68 29 0 29 C-1.46242067 36.7522494 -2.33197149 44.382733 -2.75390625 52.26171875 C-3 55 -3 55 -4 56 C-4.2165625 57.7325 -4.2165625 57.7325 -4.4375 59.5 C-4.623125 60.655 -4.80875 61.81 -5 63 C-5.99 63.495 -5.99 63.495 -7 64 C-6.40760108 55.50862874 -5.34903687 47.16124013 -4.0625 38.75 C-2.14763482 25.8653466 -0.88735329 12.99287213 0 0 Z " fill="#E79D69" transform="translate(178,183)"/>
<path d="M0 0 C0.33 0 0.66 0 1 0 C1.33 2.31 1.66 4.62 2 7 C1.01 7.33 0.02 7.66 -1 8 C-1 9.98 -1 11.96 -1 14 C-1.66 14 -2.32 14 -3 14 C-2.88140625 14.64066406 -2.7628125 15.28132813 -2.640625 15.94140625 C-1.66912812 22.46015032 -2.1483028 25.63096754 -6 31 C-6.99 31 -7.98 31 -9 31 C-9.33 33.31 -9.66 35.62 -10 38 C-10.66 38 -11.32 38 -12 38 C-9.72150257 28.92598393 -6.76428781 20.10574245 -3.76171875 11.25292969 C-2.4949593 7.506245 -1.24770354 3.75306571 0 0 Z " fill="#D05C2A" transform="translate(74,354)"/>
<path d="M0 0 C1.13583456 3.71727674 0.66670026 5.47051709 -1 9 C-0.34 9.33 0.32 9.66 1 10 C1.33 10.99 1.66 11.98 2 13 C4.64 13 7.28 13 10 13 C7.04802536 14.57529969 4.14184078 15.66804755 0.9375 16.625 C-0.34833984 17.01558594 -0.34833984 17.01558594 -1.66015625 17.4140625 C-4 18 -4 18 -7 18 C-6.35534798 13.66695924 -4.81074878 10.13327935 -2.9375 6.1875 C-2.11572266 4.44533203 -2.11572266 4.44533203 -1.27734375 2.66796875 C-0.85582031 1.78753906 -0.43429688 0.90710938 0 0 Z " fill="#CF4E16" transform="translate(32,464)"/>
<path d="M0 0 C0.66 0 1.32 0 2 0 C-0.10294401 6.80364237 -2.72607334 13.32519827 -5.48657227 19.88256836 C-7.16135002 23.87866598 -8.69094992 27.86444378 -10 32 C-10.33 32 -10.66 32 -11 32 C-10.67 28.37 -10.34 24.74 -10 21 C-9.34 21 -8.68 21 -8 21 C-8.33 18.36 -8.66 15.72 -9 13 C-8.01 12.67 -7.02 12.34 -6 12 C-4.79117904 9.99983534 -4.79117904 9.99983534 -4 8 C-3.34 8 -2.68 8 -2 8 C-2 6.35 -2 4.7 -2 3 C-1.34 3 -0.68 3 0 3 C0 2.01 0 1.02 0 0 Z " fill="#E97837" transform="translate(175,416)"/>
<path d="M0 0 C5.27749285 0.53851968 9.25645564 1.77343836 14 4 C9.47907032 5.45606519 6.48351204 4.27032841 2 3 C2.46019531 3.78117187 2.46019531 3.78117187 2.9296875 4.578125 C7.2982581 14.46321175 6.25068167 27.40173592 6 38 C5.67 38 5.34 38 5 38 C4.91959473 37.27522461 4.83918945 36.55044922 4.75634766 35.80371094 C4.38258282 32.45209073 4.00381469 29.10105306 3.625 25.75 C3.43550781 24.04070313 3.43550781 24.04070313 3.2421875 22.296875 C2.3923083 14.81793804 1.31629198 7.41111249 0 0 Z " fill="#F0863E" transform="translate(269,18)"/>
<path d="M0 0 C0.66 0 1.32 0 2 0 C-0.03074539 6.42248578 -2.41580154 12.6205023 -5.0625 18.8125 C-5.41376953 19.64458984 -5.76503906 20.47667969 -6.12695312 21.33398438 C-7.65881334 24.94500458 -9.21749989 28.50433289 -11 32 C-12.10844919 28.67465243 -11.84454356 26.37817425 -11 23 C-10.34 23 -9.68 23 -9 23 C-9 22.01 -9 21.02 -9 20 C-8.34 20 -7.68 20 -7 20 C-7 18.35 -7 16.7 -7 15 C-6.34 15 -5.68 15 -5 15 C-5.061875 13.39125 -5.061875 13.39125 -5.125 11.75 C-5.01142928 8.34287835 -4.89535315 6.73773233 -3 4 C-2.34 3.67 -1.68 3.34 -1 3 C-0.67 2.01 -0.34 1.02 0 0 Z " fill="#D9653D" transform="translate(112,396)"/>
<path d="M0 0 C0.33 0 0.66 0 1 0 C0.67 5.28 0.34 10.56 0 16 C-0.66 16 -1.32 16 -2 16 C-2 16.99 -2 17.98 -2 19 C-2.66 19 -3.32 19 -4 19 C-4.103125 19.53625 -4.20625 20.0725 -4.3125 20.625 C-5.18092697 23.62502044 -6.55620296 26.2379535 -8 29 C-8.66 29 -9.32 29 -10 29 C-7.84190736 22.45368561 -5.59781538 15.94039115 -3.3125 9.4375 C-2.99216797 8.52419922 -2.67183594 7.61089844 -2.34179688 6.66992188 C-1.56181678 4.44639654 -0.78120838 2.22309402 0 0 Z " fill="#EE7E3D" transform="translate(141,355)"/>
<path d="M0 0 C7.08904774 1.90219316 13.54428043 4.45387056 20.125 7.6875 C20.98609375 8.10322266 21.8471875 8.51894531 22.734375 8.94726562 C24.82619933 9.95831405 26.91454414 10.97589795 29 12 C25.73571614 12.92360532 24.16629648 12.99236046 21 11.6875 C20.30648437 11.40390625 19.61296875 11.1203125 18.8984375 10.828125 C15.76802288 9.46259434 13.43194263 8.43194263 11 6 C9.01276732 5.29618843 7.01222047 4.6288189 5 4 C4.34 3.67 3.68 3.34 3 3 C3 3.99 3 4.98 3 6 C2.34 6 1.68 6 1 6 C0.67 4.02 0.34 2.04 0 0 Z " fill="#E8823F" transform="translate(175,114)"/>
<path d="M0 0 C0.33 0 0.66 0 1 0 C0.6644618 7.95225544 -0.53629871 15.6755588 -1.9375 23.5 C-2.10733398 24.46760254 -2.27716797 25.43520508 -2.45214844 26.43212891 C-2.62133789 27.35171387 -2.79052734 28.27129883 -2.96484375 29.21875 C-3.1155835 30.04310547 -3.26632324 30.86746094 -3.42163086 31.71679688 C-4.00776329 34.03064679 -4.8530889 35.91394504 -6 38 C-5.85978195 35.35375716 -5.71310224 32.70815422 -5.5625 30.0625 C-5.52318359 29.30775391 -5.48386719 28.55300781 -5.44335938 27.77539062 C-5.11328125 22.11328125 -5.11328125 22.11328125 -4 21 C-3.96854193 18.70356092 -4.0680779 16.42349871 -4.16015625 14.12890625 C-4 12 -4 12 -2 10 C-1.32059533 7.57284794 -1.32059533 7.57284794 -0.875 4.875 C-0.62363281 3.50988281 -0.62363281 3.50988281 -0.3671875 2.1171875 C-0.24601563 1.41851562 -0.12484375 0.71984375 0 0 Z " fill="#E07B3F" transform="translate(252,181)"/>
<path d="M0 0 C1.10889158 1.07312089 2.20970106 2.15509094 3.28515625 3.26171875 C4.61478595 4.60952107 5.98526092 5.917088 7.37109375 7.20703125 C13.82697396 13.60248201 13.82697396 13.60248201 14.35546875 17.87109375 C14.09246541 20.34332512 13.69506849 22.61545846 13 25 C12.67 25 12.34 25 12 25 C12 22.03 12 19.06 12 16 C11.01 16.33 10.02 16.66 9 17 C8.34 16.34 7.68 15.68 7 15 C7.33 14.01 7.66 13.02 8 12 C6.20180184 8.5739739 6.20180184 8.5739739 2 8 C1.34 5.36 0.68 2.72 0 0 Z " fill="#E97335" transform="translate(241,156)"/>
<path d="M0 0 C0.66 0 1.32 0 2 0 C-0.13337405 8.06480039 -2.50679552 16.03946386 -5 24 C-5.33 24 -5.66 24 -6 24 C-6 21.69 -6 19.38 -6 17 C-5.34 17 -4.68 17 -4 17 C-4.10699219 16.38511719 -4.21398437 15.77023437 -4.32421875 15.13671875 C-4.44410156 14.32847656 -4.56398437 13.52023437 -4.6875 12.6875 C-4.81511719 11.88699219 -4.94273437 11.08648437 -5.07421875 10.26171875 C-5 8 -5 8 -3.59375 6.375 C-3.0678125 5.92125 -2.541875 5.4675 -2 5 C-0.80972016 2.40084462 -0.80972016 2.40084462 0 0 Z " fill="#ED8341" transform="translate(231,267)"/>
<path d="M0 0 C1 2 1 2 0.3190918 4.07543945 C-0.05046631 4.91292725 -0.42002441 5.75041504 -0.80078125 6.61328125 C-1.20103516 7.53173828 -1.60128906 8.45019531 -2.01367188 9.39648438 C-2.6565918 10.83991211 -2.6565918 10.83991211 -3.3125 12.3125 C-4.14230911 14.20425956 -4.97174804 16.09618154 -5.80078125 17.98828125 C-6.17372314 18.82915283 -6.54666504 19.67002441 -6.9309082 20.53637695 C-8.00280798 23.00647073 -9.01204333 25.49529356 -10 28 C-12 24.25 -12 24.25 -12 22 C-11.2884375 21.319375 -11.2884375 21.319375 -10.5625 20.625 C-8.77906263 18.77022513 -8.4308007 17.49864408 -8 15 C-7.34 15 -6.68 15 -6 15 C-6 13.35 -6 11.7 -6 10 C-5.34 10 -4.68 10 -4 10 C-3.855625 9.2575 -3.71125 8.515 -3.5625 7.75 C-3.376875 6.8425 -3.19125 5.935 -3 5 C-2.7834375 3.88625 -2.7834375 3.88625 -2.5625 2.75 C-2.376875 2.1725 -2.19125 1.595 -2 1 C-1.34 0.67 -0.68 0.34 0 0 Z " fill="#EA9258" transform="translate(197,367)"/>
<path d="M0 0 C0.33 0 0.66 0 1 0 C1.125 7.625 1.125 7.625 0 11 C-0.99 11 -1.98 11 -3 11 C-1.68 11.66 -0.36 12.32 1 13 C0.34 13 -0.32 13 -1 13 C-1 13.66 -1 14.32 -1 15 C-2.32 15.33 -3.64 15.66 -5 16 C-5 16.66 -5 17.32 -5 18 C-5.66 18 -6.32 18 -7 18 C-5.06375702 11.79522136 -2.74390859 5.89174281 0 0 Z " fill="#ED752E" transform="translate(119,415)"/>
<path d="M0 0 C0.33 0 0.66 0 1 0 C2.09857724 6.1676029 2.11539104 12.18415123 2.0625 18.4375 C2.05798828 19.45521484 2.05347656 20.47292969 2.04882812 21.52148438 C2.03712437 24.01438509 2.02072848 26.50716074 2 29 C1.34 29 0.68 29 0 29 C-0.33 29.66 -0.66 30.32 -1 31 C-1.1132812 20.60330359 -0.91987611 10.36503256 0 0 Z " fill="#E78241" transform="translate(178,183)"/>
<path d="M0 0 C1.98 0.99 1.98 0.99 4 2 C3.34 2 2.68 2 2 2 C2.144375 2.95519531 2.28875 3.91039062 2.4375 4.89453125 C3.5527845 12.66279761 4.29450349 20.13021237 4 28 C3.34 28 2.68 28 2 28 C1.6610769 24.64637391 1.32988036 21.29202668 1 17.9375 C0.90460938 16.99455078 0.80921875 16.05160156 0.7109375 15.08007812 C0.21774722 10.02487778 -0.11270932 5.07896392 0 0 Z " fill="#D67B55" transform="translate(93,191)"/>
<path d="M0 0 C1.1673418 3.5020254 0.79056598 4.29616038 -0.43359375 7.66796875 C-0.75263672 8.56064453 -1.07167969 9.45332031 -1.40039062 10.37304688 C-1.74263672 11.30181641 -2.08488281 12.23058594 -2.4375 13.1875 C-2.77587891 14.12787109 -3.11425781 15.06824219 -3.46289062 16.03710938 C-4.30048809 18.36114742 -5.14645283 20.68178235 -6 23 C-6.33 23 -6.66 23 -7 23 C-6.67 19.37 -6.34 15.74 -6 12 C-6.66 12 -7.32 12 -8 12 C-8 10.35 -8 8.7 -8 7 C-6.02 7.99 -6.02 7.99 -4 9 C-3.2884375 7.329375 -3.2884375 7.329375 -2.5625 5.625 C-1.74693537 3.73289006 -0.92143645 1.84287291 0 0 Z " fill="#D1622D" transform="translate(128,354)"/>
<path d="M0 0 C1.65 0.99 3.3 1.98 5 3 C4.796875 4.88671875 4.796875 4.88671875 4 7 C1.890625 8.08203125 1.890625 8.08203125 -0.75 8.8125 C-1.61109375 9.06644531 -2.4721875 9.32039063 -3.359375 9.58203125 C-6.21171419 10.03351097 -8.22627691 9.73334046 -11 9 C-11 8.67 -11 8.34 -11 8 C-9.88625 7.87625 -8.7725 7.7525 -7.625 7.625 C-3.96896323 7.3534187 -3.96896323 7.3534187 -2 5 C-1.29289322 3.35008418 -0.62056011 1.68437744 0 0 Z " fill="#EB7429" transform="translate(153,457)"/>
<path d="M0 0 C0.33 0 0.66 0 1 0 C1.5214447 9.03837472 1.5214447 9.03837472 -2 13 C-2 14.32 -2 15.64 -2 17 C-2.66 17 -3.32 17 -4 17 C-4.33 17.99 -4.66 18.98 -5 20 C-6.02826931 16.86332092 -5.99386675 15.16815258 -4.78515625 12.109375 C-4.37426758 11.04589844 -4.37426758 11.04589844 -3.95507812 9.9609375 C-3.66052734 9.23132813 -3.36597656 8.50171875 -3.0625 7.75 C-2.77181641 7.00492187 -2.48113281 6.25984375 -2.18164062 5.4921875 C-1.46426278 3.65758186 -0.73342561 1.82824935 0 0 Z " fill="#EC8D4A" transform="translate(214,356)"/>
<path d="M0 0 C0.33 0 0.66 0 1 0 C0.88506243 1.89646998 0.75760358 3.79218332 0.625 5.6875 C0.55539063 6.74324219 0.48578125 7.79898437 0.4140625 8.88671875 C0.01239911 11.90677269 -0.74069019 14.24078054 -2 17 C-2.66 17 -3.32 17 -4 17 C-4.33 19.31 -4.66 21.62 -5 24 C-5.66 24 -6.32 24 -7 24 C-5.40554307 15.73781407 -2.73981931 7.93711014 0 0 Z " fill="#F18440" transform="translate(233,302)"/>
<path d="M0 0 C0.33 0 0.66 0 1 0 C1.625 3.375 1.625 3.375 2 7 C1.34 7.66 0.68 8.32 0 9 C-0.6425235 11.06874034 -0.6425235 11.06874034 -1 13 C-1.66 13 -2.32 13 -3 13 C-2.67 15.31 -2.34 17.62 -2 20 C-3.32 20.33 -4.64 20.66 -6 21 C-4.55613874 13.78069368 -2.42211826 6.94889267 0 0 Z " fill="#F18027" transform="translate(240,281)"/>
<path d="M0 0 C10.53568235 7.71704525 10.53568235 7.71704525 15 12 C15 12.33 15 12.66 15 13 C12.625 13.1875 12.625 13.1875 10 13 C8 10 8 10 7 7 C5.35 7 3.7 7 2 7 C1.34 4.69 0.68 2.38 0 0 Z " fill="#EA7F41" transform="translate(217,135)"/>
<path d="M0 0 C0.33 0 0.66 0 1 0 C1.0272616 2.04159095 1.04651345 4.08328963 1.0625 6.125 C1.07410156 7.26195312 1.08570313 8.39890625 1.09765625 9.5703125 C1.005327 12.8129156 0.61389906 15.81932612 0 19 C-1.31602523 18.38245741 -2.62773556 17.75571258 -3.9375 17.125 C-4.66839844 16.77695312 -5.39929688 16.42890625 -6.15234375 16.0703125 C-8 15 -8 15 -9 13 C-7.68 13 -6.36 13 -5 13 C-5 13.66 -5 14.32 -5 15 C-4.34 15 -3.68 15 -3 15 C-1.42922093 9.97350697 -0.55145271 5.23880078 0 0 Z " fill="#EE8538" transform="translate(473,460)"/>
<path d="M0 0 C3.05227053 3.05227053 3.84346654 6.83341231 5.1875 10.875 C5.47302734 11.69097656 5.75855469 12.50695312 6.05273438 13.34765625 C6.31763672 14.13785156 6.58253906 14.92804688 6.85546875 15.7421875 C7.09934326 16.4626123 7.34321777 17.18303711 7.59448242 17.92529297 C8.05438478 20.27824316 7.74371194 21.74376667 7 24 C4.89574779 20.84362169 4.33191467 18.56474058 3.5625 14.9375 C3.01897401 12.70268087 3.01897401 12.70268087 1 10 C0.5859375 7.51953125 0.5859375 7.51953125 0.375 4.8125 C0.30023438 3.91144531 0.22546875 3.01039063 0.1484375 2.08203125 C0.09945313 1.39496094 0.05046875 0.70789063 0 0 Z " fill="#EE8B4D" transform="translate(434,210)"/>
<path d="M0 0 C2.34211663 2.89399469 3.86862171 5.67155428 5.25 9.125 C5.60578125 9.99382812 5.9615625 10.86265625 6.328125 11.7578125 C7 14 7 14 6 16 C5.34 14.68 4.68 13.36 4 12 C2.35 12.33 0.7 12.66 -1 13 C-1 11.68 -1 10.36 -1 9 C-0.34 8.67 0.32 8.34 1 8 C0.67 5.36 0.34 2.72 0 0 Z " fill="#ED8038" transform="translate(411,154)"/>
<path d="M0 0 C0.33 0 0.66 0 1 0 C1.02688151 1.64574566 1.04634123 3.29161413 1.0625 4.9375 C1.07410156 5.85402344 1.08570313 6.77054687 1.09765625 7.71484375 C1 10 1 10 0 11 C-0.53436584 13.21380133 -0.96284612 15.44136053 -1.40234375 17.67578125 C-2.00057484 20.0022355 -2.85062657 21.89842599 -4 24 C-5.12670431 20.61988706 -4.84431821 19.49542694 -4.00390625 16.11328125 C-3.66069336 14.7065918 -3.66069336 14.7065918 -3.31054688 13.27148438 C-3.06369141 12.29501953 -2.81683594 11.31855469 -2.5625 10.3125 C-2.31951172 9.32443359 -2.07652344 8.33636719 -1.82617188 7.31835938 C-1.22468137 4.87701555 -0.61569994 2.43779191 0 0 Z " fill="#E7702A" transform="translate(166,270)"/>
<path d="M0 0 C0.33 0 0.66 0 1 0 C1.16834933 1.77067416 1.33461909 3.54154612 1.5 5.3125 C1.5928125 6.29863281 1.685625 7.28476563 1.78125 8.30078125 C2 11 2 11 2 14 C-0.5 16.6875 -0.5 16.6875 -3 19 C-2.37679879 12.56025419 -1.35991738 6.32427599 0 0 Z " fill="#E98C54" transform="translate(170,247)"/>
<path d="M0 0 C-3.14581646 2.09721098 -5.8408918 3.05667086 -9.4375 4.1875 C-10.57058594 4.55230469 -11.70367187 4.91710937 -12.87109375 5.29296875 C-15.8339997 5.96248932 -17.22004965 6.07236414 -20 5 C-13.34411374 0.70140679 -7.98187787 -0.24943368 0 0 Z " fill="#EF7928" transform="translate(213,465)"/>
<path d="M0 0 C0.33 0 0.66 0 1 0 C1.31985731 6.71700347 0.4793824 11.75726932 -2 18 C-2.66 18 -3.32 18 -4 18 C-4.33 18.66 -4.66 19.32 -5 20 C-3.76583013 13.17576662 -2.1084005 6.60632156 0 0 Z " fill="#EB7426" transform="translate(246,261)"/>
<path d="M0 0 C2.29220004 8.25257539 -1.26153615 16.65010747 -5 24 C-6.14184472 20.6252898 -5.84408845 18.60566936 -4.78515625 15.234375 C-4.37426758 13.90019531 -4.37426758 13.90019531 -3.95507812 12.5390625 C-3.66052734 11.61867188 -3.36597656 10.69828125 -3.0625 9.75 C-2.77181641 8.81414062 -2.48113281 7.87828125 -2.18164062 6.9140625 C-1.46343503 4.6063855 -0.73596262 2.30206318 0 0 Z " fill="#E98137" transform="translate(160,295)"/>
<path d="M0 0 C0.66 0 1.32 0 2 0 C0.76583013 6.82423338 -0.8915995 13.39367844 -3 20 C-3.33 20 -3.66 20 -4 20 C-4 16.7 -4 13.4 -4 10 C-3.34 10 -2.68 10 -2 10 C-1.34 6.7 -0.68 3.4 0 0 Z " fill="#D46230" transform="translate(144,301)"/>
<path d="M0 0 C1.30766768 3.68281919 0.7198844 6.37570607 -0.1875 10.125 C-0.42855469 11.17945313 -0.66960938 12.23390625 -0.91796875 13.3203125 C-2 16 -2 16 -4.11328125 17.3671875 C-4.73589844 17.57601563 -5.35851563 17.78484375 -6 18 C-4.23536928 11.89262558 -2.30442525 5.92566493 0 0 Z " fill="#D46637" transform="translate(61,393)"/>
<path d="M0 0 C1.1700097 3.91736581 0.69584017 6.97959015 0 11 C-0.66 11 -1.32 11 -2 11 C-2 12.32 -2 13.64 -2 15 C-2.66 15 -3.32 15 -4 15 C-4.33 16.32 -4.66 17.64 -5 19 C-6.4216868 14.73493961 -4.65386682 11.79962257 -3.0625 7.8125 C-2.77181641 7.06291016 -2.48113281 6.31332031 -2.18164062 5.54101562 C-1.46274964 3.69075523 -0.73245347 1.84493352 0 0 Z " fill="#F19257" transform="translate(221,337)"/>
<path d="M0 0 C1.30211046 3.90633137 0.47812346 6.19538173 -0.4375 10.1875 C-0.72496094 11.45980469 -1.01242188 12.73210937 -1.30859375 14.04296875 C-1.53675781 15.01878906 -1.76492187 15.99460937 -2 17 C-2.33 17 -2.66 17 -3 17 C-3 14.03 -3 11.06 -3 8 C-3.99 8.33 -4.98 8.66 -6 9 C-5.6875 7.0625 -5.6875 7.0625 -5 5 C-4.01 4.67 -3.02 4.34 -2 4 C-0.79117904 1.99983534 -0.79117904 1.99983534 0 0 Z " fill="#D56C43" transform="translate(158,248)"/>
<path d="M0 0 C0.66 0 1.32 0 2 0 C1.31583566 4.17576168 -0.01365009 7.88080407 -1.5625 11.8125 C-2.01753906 12.97394531 -2.47257813 14.13539063 -2.94140625 15.33203125 C-3.29074219 16.21246094 -3.64007813 17.09289062 -4 18 C-4.66 16.68 -5.32 15.36 -6 14 C-5.34 14 -4.68 14 -4 14 C-4 12.02 -4 10.04 -4 8 C-3.34 7.67 -2.68 7.34 -2 7 C-1.26924352 4.6859378 -0.59861742 2.35171131 0 0 Z " fill="#EC955E" transform="translate(203,348)"/>
<path d="M0 0 C0.33 0 0.66 0 1 0 C0.67 6.93 0.34 13.86 0 21 C-0.99 21 -1.98 21 -3 21 C-2.17321655 13.97234063 -1.09751783 6.99001647 0 0 Z " fill="#F08A4A" transform="translate(269,156)"/>
<path d="M0 0 C0 0.33 0 0.66 0 1 C-7.59 2.32 -15.18 3.64 -23 5 C-22.67 4.34 -22.34 3.68 -22 3 C-20.68 3 -19.36 3 -18 3 C-18 2.34 -18 1.68 -18 1 C-11.96445452 0.30739642 -6.07593562 -0.11251733 0 0 Z " fill="#EC9958" transform="translate(274,452)"/>
<path d="M0 0 C1.60240722 4.78542021 0.08235216 8.56660508 -2 13 C-4.1875 15.0625 -4.1875 15.0625 -6 16 C-4.25192871 10.53262809 -2.34205919 5.24175152 0 0 Z " fill="#EC8F4B" transform="translate(173,454)"/>
<path d="M0 0 C1.6168484 3.23369679 0.00851816 6.30628257 -0.9375 9.625 C-1.13279297 10.33140625 -1.32808594 11.0378125 -1.52929688 11.765625 C-2.01314492 13.51219844 -2.50575123 15.25634124 -3 17 C-3.33 17 -3.66 17 -4 17 C-4.3853211 6.16819572 -4.3853211 6.16819572 -2 1 C-1.34 0.67 -0.68 0.34 0 0 Z " fill="#E99053" transform="translate(245,221)"/>
<path d="M0 0 C6.49142565 0.42335385 11.33492989 2.91099799 17 6 C13.80263986 7.06340773 12.1018975 6.96582104 9 5.6875 C8.30777344 5.40390625 7.61554688 5.1203125 6.90234375 4.828125 C1.16535433 2.33070866 1.16535433 2.33070866 0 0 Z " fill="#E67739" transform="translate(187,120)"/>
<path d="M0 0 C0.99 0 1.98 0 3 0 C1.36041242 5.23272633 -0.38952035 10.15196636 -3 15 C-3.33 15 -3.66 15 -4 15 C-4 13.35 -4 11.7 -4 10 C-3.34 10 -2.68 10 -2 10 C-2 8.02 -2 6.04 -2 4 C-1.34 4 -0.68 4 0 4 C0 2.68 0 1.36 0 0 Z " fill="#D36336" transform="translate(97,429)"/>
<path d="M0 0 C0.33 0 0.66 0 1 0 C1 2.31 1 4.62 1 7 C0.34 7 -0.32 7 -1 7 C-0.938125 8.546875 -0.938125 8.546875 -0.875 10.125 C-0.99575149 13.86829627 -1.64872018 16.53734547 -3 20 C-3.66 19.67 -4.32 19.34 -5 19 C-4.35561067 16.39546825 -3.7095496 13.7913709 -3.0625 11.1875 C-2.88009766 10.44951172 -2.69769531 9.71152344 -2.50976562 8.95117188 C-1.7577385 5.92939016 -0.98514427 2.95543282 0 0 Z " fill="#CC5622" transform="translate(80,334)"/>
<path d="M0 0 C3.92488093 3.70060202 7.02215543 7.4906925 10 12 C10 12.66 10 13.32 10 14 C9.01 14.33 8.02 14.66 7 15 C6.34 13.02 5.68 11.04 5 9 C4.34 9 3.68 9 3 9 C3 7.68 3 6.36 3 5 C2.34 5 1.68 5 1 5 C0.67 3.35 0.34 1.7 0 0 Z " fill="#EC772C" transform="translate(374,95)"/>
<path d="M0 0 C5.27749285 0.53851968 9.25645564 1.77343836 14 4 C9.47907032 5.45606519 6.48351204 4.27032841 2 3 C1.67 4.32 1.34 5.64 1 7 C0.67 4.69 0.34 2.38 0 0 Z " fill="#ED884A" transform="translate(269,18)"/>
<path d="M0 0 C1.63996535 5.36502951 -0.28832845 9.49454095 -2.625 14.4375 C-3.07875 15.283125 -3.5325 16.12875 -4 17 C-4.66 17 -5.32 17 -6 17 C-4.13236819 11.27789404 -2.14710968 5.62338249 0 0 Z " fill="#E9905A" transform="translate(137,367)"/>
<path d="M0 0 C0.33 0 0.66 0 1 0 C0.67 4.95 0.34 9.9 0 15 C-0.66 15 -1.32 15 -2 15 C-2 16.32 -2 17.64 -2 19 C-2.66 19 -3.32 19 -4 19 C-3.52202924 16.58309124 -3.0426678 14.16647237 -2.5625 11.75 C-2.42779297 11.06808594 -2.29308594 10.38617188 -2.15429688 9.68359375 C-1.50779289 6.43530542 -0.84997305 3.20184022 0 0 Z " fill="#ED9B62" transform="translate(259,208)"/>
<path d="M0 0 C0.33 0 0.66 0 1 0 C1 1.98 1 3.96 1 6 C0.34 6 -0.32 6 -1 6 C-0.67 7.32 -0.34 8.64 0 10 C-0.66 10 -1.32 10 -2 10 C-2 10.99 -2 11.98 -2 13 C-2.99 13 -3.98 13 -5 13 C-4.54554036 11.58208592 -4.08625056 10.16571954 -3.625 8.75 C-3.24214844 7.56664062 -3.24214844 7.56664062 -2.8515625 6.359375 C-2.04826333 4.13372042 -1.10288338 2.09068328 0 0 Z " fill="#CB4F1A" transform="translate(38,451)"/>
<path d="M0 0 C0.33 0 0.66 0 1 0 C1.45293073 8.90763766 1.45293073 8.90763766 -2 13 C-2.99 13 -3.98 13 -5 13 C-3.58192622 8.52761347 -1.88695626 4.28853694 0 0 Z " fill="#EE8843" transform="translate(179,441)"/>
<path d="M0 0 C0.33 0 0.66 0 1 0 C1 2.97 1 5.94 1 9 C0.34 9 -0.32 9 -1 9 C-1.66 10.65 -2.32 12.3 -3 14 C-3.66 13.67 -4.32 13.34 -5 13 C-3.35 8.71 -1.7 4.42 0 0 Z " fill="#EB9866" transform="translate(130,385)"/>
<path d="M0 0 C0.33 0 0.66 0 1 0 C1.33 3.63 1.66 7.26 2 11 C1.01 11 0.02 11 -1 11 C-1 12.65 -1 14.3 -1 16 C-1.66 16 -2.32 16 -3 16 C-2.40984815 10.49191603 -1.43336231 5.35121931 0 0 Z " fill="#ED9D5D" transform="translate(254,228)"/>
<path d="M0 0 C5.91577376 2.74660925 10.90479475 5.93467666 16 10 C15.01 10.33 14.02 10.66 13 11 C11.0625 9.8203125 11.0625 9.8203125 9 8.125 C6.54331047 6.12428693 5.04638646 5.01546215 2 4 C2 3.34 2 2.68 2 2 C1.34 2 0.68 2 0 2 C0 1.34 0 0.68 0 0 Z " fill="#C05B2E" transform="translate(114,201)"/>
<path d="M0 0 C-2.95197464 1.57529969 -5.85815922 2.66804755 -9.0625 3.625 C-10.34833984 4.01558594 -10.34833984 4.01558594 -11.66015625 4.4140625 C-14 5 -14 5 -17 5 C-17 4.34 -17 3.68 -17 3 C-15.68 3 -14.36 3 -13 3 C-13 2.34 -13 1.68 -13 1 C-8.61414671 0.29826347 -4.44209357 -0.10834375 0 0 Z " fill="#EA7E3F" transform="translate(111,476)"/>
<path d="M0 0 C1.4540625 0.0309375 1.4540625 0.0309375 2.9375 0.0625 C2.6075 0.7225 2.2775 1.3825 1.9375 2.0625 C-3.25149929 3.67287909 -7.65249807 4.28791675 -13.0625 4.0625 C-12.7325 3.4025 -12.4025 2.7425 -12.0625 2.0625 C-10.25 1.68359375 -10.25 1.68359375 -8.0625 1.5 C-4.86971233 1.22063108 -3.11694238 0.06361107 0 0 Z " fill="#E78035" transform="translate(249.0625,454.9375)"/>
<path d="M0 0 C0.33 0 0.66 0 1 0 C2.3403676 6.33628319 2.3403676 6.33628319 0.75 9.4375 C-1 11 -1 11 -4 11 C-3.52269162 9.5410574 -3.04308958 8.08286504 -2.5625 6.625 C-2.29566406 5.81289063 -2.02882812 5.00078125 -1.75390625 4.1640625 C-1 2 -1 2 0 0 Z " fill="#F47F38" transform="translate(188,421)"/>
<path d="M0 0 C0.33 0 0.66 0 1 0 C2.25 6.625 2.25 6.625 0 10 C-2.125 11.1875 -2.125 11.1875 -4 12 C-3.33501617 7.61110675 -1.81242323 4.0188515 0 0 Z " fill="#D9815C" transform="translate(50,421)"/>
<path d="M0 0 C0.33 0 0.66 0 1 0 C1.04241723 2.33294775 1.04092937 4.66702567 1 7 C0.67 7.33 0.34 7.66 0 8 C-0.2165625 9.7325 -0.2165625 9.7325 -0.4375 11.5 C-0.623125 12.655 -0.80875 13.81 -1 15 C-1.99 15.495 -1.99 15.495 -3 16 C-2.88544319 14.08268082 -2.75793742 12.1661325 -2.625 10.25 C-2.55539063 9.18265625 -2.48578125 8.1153125 -2.4140625 7.015625 C-2.0271777 4.19793568 -1.44313834 2.4169634 0 0 Z " fill="#E6884E" transform="translate(174,231)"/>
<path d="M0 0 C4.10958767 1.45044271 7.43258745 3.51110752 11 6 C7.59068103 7.13643966 6.99664544 6.86747764 3.8125 5.5625 C3.09707031 5.27503906 2.38164062 4.98757812 1.64453125 4.69140625 C0.83048828 4.34916016 0.83048828 4.34916016 0 4 C0 2.68 0 1.36 0 0 Z " fill="#E7864B" transform="translate(204,127)"/>
<path d="M0 0 C0.99 0 1.98 0 3 0 C1.68938409 4.23429756 0.05643741 8.07407404 -2 12 C-3.60170888 7.9957278 -2.34040384 4.94674464 -1 1 C-0.67 0.67 -0.34 0.34 0 0 Z " fill="#E89056" transform="translate(161,448)"/>
<path d="M0 0 C0.66 0 1.32 0 2 0 C1.57388649 1.75280733 1.13360733 3.50217435 0.6875 5.25 C0.44386719 6.22453125 0.20023438 7.1990625 -0.05078125 8.203125 C-0.99652356 10.98975665 -2.10708713 12.77304368 -4 15 C-4 13.02 -4 11.04 -4 9 C-3.34 9 -2.68 9 -2 9 C-2.33 7.35 -2.66 5.7 -3 4 C-2.01 4 -1.02 4 0 4 C0 2.68 0 1.36 0 0 Z " fill="#E4722C" transform="translate(213,320)"/>
<path d="M0 0 C12.66970387 0.59453303 12.66970387 0.59453303 18 4 C17.67 4.66 17.34 5.32 17 6 C8.585 3.525 8.585 3.525 0 1 C0 0.67 0 0.34 0 0 Z " fill="#EB995D" transform="translate(411,452)"/>
<path d="M0 0 C0.33 0 0.66 0 1 0 C1.75 2.6875 1.75 2.6875 2 6 C0.1875 8.875 0.1875 8.875 -2 11 C-2.66 11 -3.32 11 -4 11 C-3.21681311 7.08406554 -1.60820142 3.63593365 0 0 Z " fill="#F3803C" transform="translate(193,410)"/>
<path d="M0 0 C0.66 0 1.32 0 2 0 C0.68 5.28 -0.64 10.56 -2 16 C-2.33 16 -2.66 16 -3 16 C-3.37851209 10.06997733 -2.10575375 5.52760359 0 0 Z " fill="#EA8C50" transform="translate(236,250)"/>
<path d="M0 0 C0.66 0 1.32 0 2 0 C1.40895235 4.84659077 0.02055843 8.60748167 -2 13 C-4 9.25 -4 9.25 -4 7 C-3.525625 6.54625 -3.05125 6.0925 -2.5625 5.625 C-0.77906263 3.77022513 -0.4308007 2.49864408 0 0 Z " fill="#EC803F" transform="translate(189,382)"/>
<path d="M0 0 C2.11044382 3.16566573 2.75552077 5.51197415 3.625 9.1875 C3.88539063 10.27417969 4.14578125 11.36085937 4.4140625 12.48046875 C4.60742188 13.31191406 4.80078125 14.14335937 5 15 C4.34 15 3.68 15 3 15 C3 14.01 3 13.02 3 12 C2.34 12 1.68 12 1 12 C0.67 8.04 0.34 4.08 0 0 Z " fill="#ED8844" transform="translate(442,234)"/>
<path d="M0 0 C0.33 0.66 0.66 1.32 1 2 C0.00390625 4.6015625 0.00390625 4.6015625 -1.4375 7.625 C-1.91058594 8.62789063 -2.38367188 9.63078125 -2.87109375 10.6640625 C-3.24363281 11.43492187 -3.61617188 12.20578125 -4 13 C-4.66 12.67 -5.32 12.34 -6 12 C-5.6875 9.125 -5.6875 9.125 -5 6 C-4.01 5.34 -3.02 4.68 -2 4 C-0.80767387 1.94996045 -0.80767387 1.94996045 0 0 Z " fill="#CB5225" transform="translate(88,453)"/>
<path d="M0 0 C2.31 0.66 4.62 1.32 7 2 C7 2.66 7 3.32 7 4 C2.71 3.67 -1.58 3.34 -6 3 C-6 2.67 -6 2.34 -6 2 C-4.02 2 -2.04 2 0 2 C0 1.34 0 0.68 0 0 Z " fill="#F26A0E" transform="translate(383,443)"/>
<path d="M0 0 C0.33 0 0.66 0 1 0 C1.33 2.97 1.66 5.94 2 9 C0.35 9.33 -1.3 9.66 -3 10 C-2.01 6.7 -1.02 3.4 0 0 Z " fill="#F1873E" transform="translate(225,326)"/>
<path d="M0 0 C0.66 0 1.32 0 2 0 C2.33 1.65 2.66 3.3 3 5 C2.34 5 1.68 5 1 5 C0.87625 5.598125 0.7525 6.19625 0.625 6.8125 C0 9 0 9 -2 12 C-1.85831863 10.56208484 -1.71148957 9.1246763 -1.5625 7.6875 C-1.48128906 6.88699219 -1.40007812 6.08648437 -1.31640625 5.26171875 C-1 3 -1 3 0 0 Z " fill="#F4680D" transform="translate(261,205)"/>
<path d="M0 0 C3.26008643 3.16952847 6.22237877 6.39937989 9 10 C8.01 10.495 8.01 10.495 7 11 C6.67 10.34 6.34 9.68 6 9 C4.68 8.67 3.36 8.34 2 8 C1.34 5.36 0.68 2.72 0 0 Z " fill="#E78043" transform="translate(241,156)"/>
<path d="M0 0 C2.34914492 2.34914492 2.73140357 3.95679446 3.625 7.125 C3.88539063 8.03507813 4.14578125 8.94515625 4.4140625 9.8828125 C4.70410156 10.93082031 4.70410156 10.93082031 5 12 C3 12 3 12 1.38671875 10.79296875 C-0.39894608 8.48417958 -0.31277232 7.19376329 -0.1875 4.3125 C-0.16042969 3.50425781 -0.13335937 2.69601563 -0.10546875 1.86328125 C-0.07066406 1.24839844 -0.03585937 0.63351563 0 0 Z " fill="#F27A2D" transform="translate(429,197)"/>
<path d="M0 0 C0.66 0 1.32 0 2 0 C1.54738642 1.43931117 1.08767021 2.87638999 0.625 4.3125 C0.36976562 5.11300781 0.11453125 5.91351563 -0.1484375 6.73828125 C-1 9 -1 9 -3 12 C-3 9.36 -3 6.72 -3 4 C-2.34 3.67 -1.68 3.34 -1 3 C-0.67 2.01 -0.34 1.02 0 0 Z " fill="#D66E43" transform="translate(112,396)"/>
<path d="M0 0 C1.25955231 3.77865693 0.48087189 5.03411786 -0.9375 8.6875 C-1.31777344 9.68136719 -1.69804688 10.67523438 -2.08984375 11.69921875 C-2.39019531 12.45847656 -2.69054687 13.21773438 -3 14 C-4.45002516 9.22828601 -2.96642601 6.04023269 -0.875 1.625 C-0.58625 1.08875 -0.2975 0.5525 0 0 Z " fill="#C8572C" transform="translate(128,354)"/>
<path d="M0 0 C2.61724095 2.36797991 4.32861729 4.89600354 6 8 C6 8.66 6 9.32 6 10 C3 9 3 9 1.3125 6.6875 C0 4 0 4 0 0 Z " fill="#EF8E4C" transform="translate(396,127)"/>
<path d="M0 0 C4.10958767 1.45044271 7.43258745 3.51110752 11 6 C10.34 6.66 9.68 7.32 9 8 C9 7.34 9 6.68 9 6 C6.03 5.01 3.06 4.02 0 3 C0 2.01 0 1.02 0 0 Z " fill="#ED8D49" transform="translate(317,41)"/>
<path d="M0 0 C0.33 0 0.66 0 1 0 C0.14285714 8.57142857 0.14285714 8.57142857 -2 12 C-3.10844919 8.67465243 -2.84454356 6.37817425 -2 3 C-1.34 3 -0.68 3 0 3 C0 2.01 0 1.02 0 0 Z " fill="#D25C2B" transform="translate(103,416)"/>
<path d="M0 0 C0.99 0 1.98 0 3 0 C2.54917531 1.46067199 2.08906463 2.91848032 1.625 4.375 C1.36976563 5.18710937 1.11453125 5.99921875 0.8515625 6.8359375 C0 9 0 9 -2 11 C-2 9.35 -2 7.7 -2 6 C-1.34 6 -0.68 6 0 6 C0 4.02 0 2.04 0 0 Z " fill="#EA843E" transform="translate(179,405)"/>
<path d="M0 0 C0.66 0 1.32 0 2 0 C2.625 2.375 2.625 2.375 3 5 C2.34 5.66 1.68 6.32 1 7 C0.01 6.67 -0.98 6.34 -2 6 C-2 4.68 -2 3.36 -2 2 C-1.34 2 -0.68 2 0 2 C0 1.34 0 0.68 0 0 Z " fill="#ED691D" transform="translate(133,382)"/>
<path d="M0 0 C0.33 0 0.66 0 1 0 C1.33 2.97 1.66 5.94 2 9 C1.01 9.33 0.02 9.66 -1 10 C-2.23076923 4.58461538 -2.23076923 4.58461538 -1.0625 1.625 C-0.5365625 0.820625 -0.5365625 0.820625 0 0 Z " fill="#CD4F19" transform="translate(70,369)"/>
<path d="M0 0 C0.33 0 0.66 0 1 0 C0.67 3.63 0.34 7.26 0 11 C-0.99 11 -1.98 11 -3 11 C-2.01 7.37 -1.02 3.74 0 0 Z " fill="#EA8240" transform="translate(150,329)"/>
<path d="M0 0 C0.33 0 0.66 0 1 0 C1.2358396 5.77807024 0.86783046 10.51324804 -1 16 C-1.33 16 -1.66 16 -2 16 C-2.20674944 10.21101581 -1.59162079 5.57067277 0 0 Z " fill="#EE6C19" transform="translate(272,144)"/>
<path d="M0 0 C1.125 3.75 1.125 3.75 0 6 C0.99 6.33 1.98 6.66 3 7 C1.02 7.66 -0.96 8.32 -3 9 C-2.44271087 5.65626525 -1.64826111 2.96687001 0 0 Z " fill="#E8884E" transform="translate(164,474)"/>
<path d="M0 0 C1.4606285 2.64738916 2 3.89448334 2 7 C0.68 7.33 -0.64 7.66 -2 8 C-1.125 2.25 -1.125 2.25 0 0 Z " fill="#EC7736" transform="translate(105,447)"/>
<path d="M0 0 C1.46534385 3.80989402 0.55203911 6.3241179 -1 10 C-1.99 10.495 -1.99 10.495 -3 11 C-2.53199289 6.94393835 -2.12046792 3.53411321 0 0 Z " fill="#D38564" transform="translate(45,433)"/>
<path d="M0 0 C1.39195915 4.17587745 -0.17676781 6.13474776 -2 10 C-2.33 10 -2.66 10 -3 10 C-3.36923077 3.47692308 -3.36923077 3.47692308 -1.5 1.0625 C-1.005 0.711875 -0.51 0.36125 0 0 Z " fill="#E8833E" transform="translate(185,395)"/>
<path d="M0 0 C0.28875 0.61875 0.5775 1.2375 0.875 1.875 C1.93720042 4.13325765 1.93720042 4.13325765 4 6 C2.02 6.33 0.04 6.66 -2 7 C-1.125 2.25 -1.125 2.25 0 0 Z " fill="#CD6636" transform="translate(27,475)"/>
<path d="M0 0 C3.3 0 6.6 0 10 0 C6.39338934 1.80330533 3.91606575 2.46599103 0 3 C0 2.01 0 1.02 0 0 Z " fill="#D5622D" transform="translate(32,477)"/>
<path d="M0 0 C0.33 0 0.66 0 1 0 C1.36923077 6.52307692 1.36923077 6.52307692 -0.5 8.9375 C-0.995 9.288125 -1.49 9.63875 -2 10 C-3 8 -3 8 -2.44140625 6.0546875 C-2.15136719 5.33539063 -1.86132812 4.61609375 -1.5625 3.875 C-1.27503906 3.15054687 -0.98757812 2.42609375 -0.69140625 1.6796875 C-0.46324219 1.12539063 -0.23507813 0.57109375 0 0 Z " fill="#D56F46" transform="translate(54,411)"/>
<path d="M0 0 C1.32 0 2.64 0 4 0 C3.5020163 3.73487777 3.12508244 5.81237635 1 9 C1.020625 8.071875 1.04125 7.14375 1.0625 6.1875 C1.15769604 2.97713989 1.15769604 2.97713989 0 0 Z " fill="#ED9047" transform="translate(204,339)"/>
<path d="M0 0 C2.31 0.33 4.62 0.66 7 1 C7 1.66 7 2.32 7 3 C7.66 3 8.32 3 9 3 C9 3.66 9 4.32 9 5 C5.54074837 3.7508258 2.85306797 2.32472205 0 0 Z " fill="#ED782D" transform="translate(455,468)"/>
<path d="M0 0 C0.91058531 3.07322544 1.08886184 5.80097361 1 9 C-0.32 8.67 -1.64 8.34 -3 8 C-1.125 2.25 -1.125 2.25 0 0 Z " fill="#EF8147" transform="translate(109,438)"/>
<path d="M0 0 C0.33 0 0.66 0 1 0 C1.66 2.31 2.32 4.62 3 7 C1.68 7.33 0.36 7.66 -1 8 C-1.04241723 5.66705225 -1.04092937 3.33297433 -1 1 C-0.67 0.67 -0.34 0.34 0 0 Z " fill="#EA6617" transform="translate(172,246)"/>
<path d="M0 0 C1.65 1.65 3.3 3.3 5 5 C2 6 2 6 -1 5 C-0.67 3.35 -0.34 1.7 0 0 Z " fill="#D16332" transform="translate(145,226)"/>
<path d="M0 0 C3.82097239 0.53069061 6.06171403 1.49701566 9 4 C7.02 4 5.04 4 3 4 C3 3.34 3 2.68 3 2 C2.01 2 1.02 2 0 2 C0 1.34 0 0.68 0 0 Z " fill="#CF5C2D" transform="translate(97,193)"/>
<path d="M0 0 C2.18975773 3.28463659 2.99806563 6.20696275 4 10 C3.01 9.67 2.02 9.34 1 9 C0.67 6.03 0.34 3.06 0 0 Z " fill="#EE7729" transform="translate(425,186)"/>
<path d="M0 0 C2.31 1.98 4.62 3.96 7 6 C6.01 6.495 6.01 6.495 5 7 C4.01 6.67 3.02 6.34 2 6 C0.8125 2.9375 0.8125 2.9375 0 0 Z " fill="#C65C2C" transform="translate(134,215)"/>
<path d="M0 0 C5.875 3.75 5.875 3.75 7 6 C5.35 6 3.7 6 2 6 C1.34 4.02 0.68 2.04 0 0 Z " fill="#EB7F33" transform="translate(328,48)"/>
</svg>
