<svg width="625" height="174" viewBox="0 0 625 174" fill="none" xmlns="http://www.w3.org/2000/svg">
<g clip-path="url(#clip0_143_25509)">
<path d="M238.28 121.71C235.77 117.89 233.32 114.4 230.95 111.25C228.58 108.1 226.61 105.56 225.07 103.63C231.95 101.31 237.15 97.7701 240.67 93.0401C244.21 88.3001 245.98 82.5801 245.98 75.9101C245.98 65.3501 242.26 57.4201 234.87 52.1001C227.47 46.7801 216.71 44.1201 202.57 44.1201C198.51 44.1201 194.03 44.2801 189.14 44.6201C184.25 44.9701 179.82 45.6201 175.85 46.5901V145.7H189.93V106.37H206.55C207.86 106.37 209.14 106.34 210.4 106.23C212.23 108.46 214.29 111.07 216.57 114.08C218.85 117.09 221.15 120.3 223.46 123.74C225.78 127.18 228.08 130.79 230.36 134.56C232.62 138.34 234.73 142.06 236.67 145.74H252.05C250.32 141.87 248.21 137.86 245.74 133.69C243.27 129.53 240.78 125.53 238.26 121.71H238.28ZM222.83 91.3001C220.17 92.6701 216.9 93.5801 213.03 94.0601C209.16 94.5401 204.8 94.7901 199.97 94.7901H189.95V56.8901C193.15 56.6001 197.74 56.4601 203.74 56.4601L203.76 56.4801C207.53 56.4801 211.09 56.7601 214.42 57.3401C217.75 57.9101 220.66 58.9301 223.13 60.3801C225.6 61.8301 227.55 63.8001 229.01 66.3201C230.46 68.8401 231.19 71.9901 231.19 75.7601C231.19 79.8201 230.46 83.0901 229.01 85.5601C227.56 88.0301 225.5 89.9501 222.84 91.3001H222.83Z" fill="#191A21"/>
<path d="M287.41 68.3604C283.05 68.3604 278.8 69.1904 274.64 70.8304C270.49 72.4704 266.81 74.9404 263.61 78.2304C260.41 81.5104 257.85 85.6604 255.92 90.6404C253.99 95.6203 253.02 101.46 253.02 108.13L252.98 108.15C252.98 113.85 253.72 119.11 255.23 123.89C256.74 128.67 259.03 132.81 262.12 136.3C265.23 139.79 269.17 142.52 273.96 144.51C278.75 146.48 284.43 147.48 291.02 147.48C296.26 147.48 300.92 147 305.03 146.03C309.14 145.06 312.03 144.13 313.67 143.27L311.79 131.95C310.15 132.73 307.71 133.54 304.46 134.35C301.21 135.16 297.22 135.58 292.48 135.58C284.06 135.58 277.88 133.54 273.9 129.48C269.92 125.42 267.66 119.47 267.07 111.63H318.74C318.83 110.85 318.88 110.01 318.88 109.09V106.84C318.88 93.8603 316.18 84.2203 310.76 77.8803C305.35 71.5403 297.56 68.3803 287.4 68.3803L287.41 68.3604ZM304.81 100.73H267.36C267.65 98.1204 268.26 95.5604 269.17 93.0404C270.1 90.5304 271.38 88.3004 273.02 86.3704C274.66 84.4304 276.68 82.8604 279.05 81.6504C281.42 80.4404 284.17 79.8403 287.26 79.8403C292.77 79.8403 297.11 81.7904 300.26 85.7204C303.41 89.6304 304.93 94.6403 304.84 100.74H304.8L304.81 100.73Z" fill="#191A21"/>
<path d="M361.72 68.6201C356.02 68.6201 350.89 69.5701 346.34 71.4501C341.78 73.3501 337.94 75.9601 334.8 79.3001C331.65 82.6401 329.25 86.6101 327.61 91.2101C325.95 95.8101 325.14 100.87 325.14 106.38C325.14 112.67 326 118.1 327.75 122.64C329.49 127.18 331.86 130.99 334.87 134.03C337.88 137.09 341.39 139.34 345.39 140.79C349.4 142.24 353.79 142.97 358.23 142.97C362.67 142.97 366.58 142.37 369.91 141.16C373.26 139.95 375.51 138.97 376.67 138.19L376.69 138.21V141.41C376.69 148.37 374.91 153.46 371.38 156.65C367.84 159.85 362.07 161.44 354.03 161.44C349.76 161.44 345.68 161.04 341.76 160.21C337.86 159.38 334.54 158.45 331.82 157.38L329.35 169.13C332.44 170.2 336.09 171.12 340.31 171.89C344.53 172.67 349 173.05 353.74 173.05C365.92 173.05 375.03 170.42 381.03 165.2C387.03 159.96 390.03 151.55 390.03 139.93V72.5401C386.83 71.7601 382.88 70.9201 378.19 70.0001C373.51 69.0801 368.01 68.6201 361.72 68.6201ZM376.55 126.29C374.81 127.66 372.42 128.83 369.43 129.85C366.44 130.87 363.14 131.37 359.56 131.37C356.95 131.37 354.41 130.89 351.94 129.92C349.47 128.95 347.29 127.47 345.41 125.43C343.53 123.41 342.02 120.83 340.92 117.74C339.8 114.65 339.24 110.91 339.24 106.56C339.24 98.7101 341.19 92.4401 345.12 87.6901C349.05 82.9401 354.63 80.5701 361.88 80.5701C365.75 80.5701 368.81 80.7301 371.09 81.0701C373.37 81.4101 375.19 81.7801 376.53 82.1601H376.55V126.3V126.29Z" fill="#191A21"/>
<path d="M451.29 76.4104C449.01 73.8504 446.02 71.8704 442.29 70.4704C438.56 69.0704 434 68.3604 428.59 68.3604C423.86 68.3604 419.46 68.7203 415.4 69.4503C411.34 70.1803 408.44 70.9203 406.69 71.7003L408.28 82.8803C409.92 82.2103 412.43 81.5504 415.76 80.9304C419.1 80.2904 422.98 79.9804 427.44 79.9804C430.91 79.9804 433.75 80.4804 435.93 81.5004C438.11 82.5204 439.82 83.8703 441.08 85.5603C442.32 87.2503 443.2 89.1904 443.69 91.3704C444.17 93.5504 444.42 95.7404 444.42 97.9704V101.74C444.02 101.65 443.35 101.5 442.38 101.31C441.41 101.12 440.29 100.9 438.97 100.65C437.67 100.41 436.29 100.2 434.84 100.06C433.39 99.9003 431.97 99.8403 430.62 99.8403C426.35 99.8403 422.29 100.29 418.42 101.15C414.55 102.01 411.16 103.38 408.26 105.21C405.36 107.04 403.06 109.46 401.37 112.47C399.68 115.48 398.83 118.86 398.83 123.22C398.83 127.58 399.56 131.29 401.01 134.4C402.46 137.51 404.5 140 407.11 141.88C409.74 143.76 412.83 145.15 416.41 146.01C419.99 146.89 423.91 147.32 428.16 147.32C431.17 147.32 434.19 147.2 437.23 146.96C440.27 146.72 443.11 146.46 445.71 146.17C448.32 145.88 450.65 145.57 452.74 145.22C454.81 144.89 456.44 144.62 457.6 144.43V97.2504C457.6 93.0004 457.12 89.0904 456.15 85.5704C455.18 82.0404 453.58 78.9904 451.29 76.4304V76.4104ZM444.38 134.98C442.74 135.36 440.66 135.62 438.21 135.77C435.75 135.93 432.92 135.99 429.72 135.99C424.4 135.99 420.18 135.04 417.09 133.16C414 131.28 412.44 127.91 412.44 123.07C412.44 120.46 413.06 118.35 414.32 116.76C415.58 115.17 417.15 113.91 419.04 112.99C420.92 112.07 423 111.47 425.28 111.18C427.56 110.89 429.7 110.75 431.74 110.75C434.83 110.75 437.48 110.91 439.66 111.25C441.84 111.58 443.41 111.99 444.38 112.48V134.98Z" fill="#191A21"/>
<path d="M556.38 134.03C553.91 134.95 550.64 135.41 546.58 135.41C544.25 135.41 542.22 135.13 540.48 134.55C538.74 133.98 537.28 132.98 536.13 131.58C534.97 130.18 534.11 128.24 533.52 125.77C532.95 123.3 532.66 120.17 532.66 116.4V81.5599H561.26V70.2399H532.64V46.8799L519.14 49.1999V70.2499H483.8V46.8899L470.3 49.2099V116.54C470.3 121.59 470.7 126.01 471.53 129.83C472.36 133.67 473.79 136.88 475.82 139.49C477.84 142.1 480.54 144.05 483.87 145.37C487.2 146.67 491.44 147.32 496.57 147.32C500.92 147.32 504.8 146.82 508.18 145.8C511.57 144.78 513.94 143.93 515.3 143.26L512.69 132.08C511.72 132.46 510.01 133.12 507.54 134.03C505.07 134.95 501.8 135.41 497.74 135.41C495.41 135.41 493.39 135.13 491.64 134.55C489.9 133.98 488.44 132.98 487.28 131.58C486.12 130.18 485.26 128.24 484.67 125.77C484.1 123.3 483.81 120.17 483.81 116.4V81.5599H519.13V116.54C519.13 121.59 519.53 126.01 520.36 129.83C521.19 133.67 522.62 136.88 524.65 139.49C526.67 142.1 529.37 144.05 532.7 145.37C536.03 146.67 540.27 147.32 545.4 147.32C549.76 147.32 553.63 146.82 557.01 145.8C560.4 144.78 562.77 143.93 564.13 143.26L561.52 132.08C560.55 132.46 558.84 133.12 556.37 134.03H556.38Z" fill="#191A21"/>
<path d="M623.21 85.5601C622.24 82.0301 620.64 78.9801 618.35 76.4201C616.07 73.8601 613.08 71.8801 609.35 70.4801C605.62 69.0801 601.07 68.3701 595.65 68.3701C590.92 68.3701 586.52 68.7301 582.46 69.4601C578.4 70.1901 575.5 70.9301 573.75 71.7101L575.34 82.8901C576.98 82.2201 579.49 81.5601 582.82 80.9401C586.16 80.3001 590.04 79.9901 594.5 79.9901C597.97 79.9901 600.81 80.4901 602.99 81.5101C605.17 82.5301 606.88 83.8801 608.14 85.5701C609.38 87.2601 610.26 89.2001 610.75 91.3801C611.23 93.5601 611.48 95.7501 611.48 97.9801V101.75C611.08 101.66 610.41 101.51 609.44 101.32C608.47 101.13 607.35 100.91 606.03 100.66C604.73 100.42 603.35 100.21 601.9 100.07C600.45 99.9101 599.03 99.8501 597.69 99.8501C593.42 99.8501 589.36 100.3 585.49 101.16C581.62 102.02 578.23 103.39 575.33 105.22C572.43 107.05 570.13 109.47 568.44 112.48C566.75 115.49 565.9 118.87 565.9 123.23C565.9 127.59 566.63 131.3 568.08 134.41C569.53 137.52 571.57 140.01 574.18 141.89C576.81 143.77 579.9 145.16 583.48 146.02C587.06 146.9 590.98 147.33 595.23 147.33C598.24 147.33 601.26 147.21 604.3 146.97C607.34 146.73 610.18 146.47 612.78 146.18C615.39 145.89 617.72 145.58 619.81 145.23C621.88 144.9 623.51 144.63 624.66 144.44V97.2601C624.66 93.0101 624.18 89.1001 623.21 85.5801V85.5601ZM611.44 134.98C609.8 135.36 607.72 135.62 605.27 135.77C602.81 135.93 599.98 135.99 596.78 135.99C591.46 135.99 587.24 135.04 584.15 133.16C581.06 131.28 579.5 127.91 579.5 123.07C579.5 120.46 580.12 118.35 581.38 116.76C582.64 115.17 584.21 113.91 586.1 112.99C587.98 112.07 590.06 111.47 592.34 111.18C594.62 110.89 596.76 110.75 598.8 110.75C601.89 110.75 604.54 110.91 606.72 111.25C608.9 111.58 610.47 111.99 611.44 112.48V134.98Z" fill="#191A21"/>
<path d="M3.46 146.44C2.3 146.8 1.09 147.15 0 147.46C25.39 93.94 23.63 65.07 21.76 55.25C29.74 58.14 36.66 63.7 42.48 71.8C39.19 89.47 32.2 112.86 18.35 142.49C12.55 143.75 7.39 145.28 3.43 146.47L3.45 146.45L3.46 146.44Z" fill="#D44000"/>
<path d="M48.1 30.6904C49.38 36.6804 50.87 49.7104 47.06 70.9704C46.89 71.9404 46.68 72.9404 46.49 73.9504C46.3 74.9404 46.09 75.9404 45.87 76.9604C42.32 93.7704 35.59 115.11 23.47 141.51C23.11 142.27 22.74 143.05 22.38 143.83C22.02 144.61 21.65 145.39 21.27 146.17C21.06 146.64 20.84 147.09 20.63 147.57C22.19 147.14 24.13 146.58 26.05 146.01C27.23 145.65 28.49 145.28 29.84 144.9C32.56 144.09 35.59 143.24 38.89 142.44C39.79 142.2 40.69 141.99 41.64 141.78C41.83 141.35 42.04 140.93 42.23 140.52C48.08 127.99 52.93 116.37 56.98 105.61C57.43 104.45 57.86 103.29 58.26 102.13C58.69 100.97 59.09 99.8304 59.49 98.7004C66.43 79.1204 70.55 62.6104 72.89 48.9504C65.81 40.0704 57.52 33.9604 48.1 30.7404V30.6904Z" fill="#F5640E"/>
<path d="M123 43.83C111.7 20.74 96.5901 6.01 78.0501 0C79.5901 6.68 81.7401 22.19 77.4801 47.98C77.3101 48.93 77.1501 49.87 76.9801 50.85C76.8101 51.8 76.6201 52.77 76.4401 53.76C73.6901 68.16 69.0001 85.44 61.3801 105.86C60.9301 107.04 60.4801 108.25 60.0101 109.46C59.5401 110.67 59.0601 111.88 58.5901 113.11C55.1801 121.75 51.2701 130.92 46.7701 140.6C46.7001 140.74 46.6501 140.88 46.5801 141C46.2701 141.66 45.9601 142.3 45.6601 142.97C45.3501 143.63 45.0201 144.3 44.7101 144.98C44.6401 145.1 44.5901 145.24 44.5201 145.36C44.1601 146.12 43.7901 146.9 43.4301 147.68C45.0901 147.28 47.2901 146.64 49.5401 145.95C50.1301 145.78 50.7201 145.59 51.3201 145.43C51.9101 145.24 52.5501 145.07 53.1701 144.89C54.2101 144.58 55.3001 144.25 56.4401 143.92C57.6001 143.59 58.8301 143.23 60.0601 142.88C60.5101 142.76 60.9801 142.62 61.4601 142.5C62.1701 142.31 62.8801 142.12 63.5901 141.93C64.2801 141.74 64.9601 141.55 65.6701 141.39C66.9301 141.06 68.2001 140.75 69.5101 140.42C71.8301 139.85 74.2501 139.33 76.7301 138.81C83.7401 137.39 91.2901 136.28 98.9401 135.94C99.6301 135.92 100.34 135.89 101.02 135.87C101.73 135.87 102.44 135.85 103.15 135.82H103.65C117.24 135.82 130.95 138.54 142.46 146.5C144.05 133.52 142.41 83.63 122.95 43.87L123 43.85V43.83Z" fill="#FF6600"/>
</g>
<defs>
<clipPath id="clip0_143_25509">
<rect width="624.66" height="173.03" fill="white"/>
</clipPath>
</defs>
</svg>
