<?xml version="1.0" encoding="UTF-8"?>
<svg id="Layer_1" data-name="Layer 1" xmlns="http://www.w3.org/2000/svg" xmlns:xlink="http://www.w3.org/1999/xlink" viewBox="0 0 396 288">
  <defs>
    <style>
      .cls-1 {
        fill: none;
      }

      .cls-2 {
        fill: #0e0b0b;
      }

      .cls-3 {
        fill: url(#linear-gradient-8);
      }

      .cls-4 {
        fill: url(#linear-gradient-7);
      }

      .cls-5 {
        fill: url(#linear-gradient-5);
      }

      .cls-6 {
        fill: url(#linear-gradient-6);
      }

      .cls-7 {
        fill: url(#linear-gradient-9);
      }

      .cls-8 {
        fill: url(#linear-gradient-4);
      }

      .cls-9 {
        fill: url(#linear-gradient-3);
      }

      .cls-10 {
        fill: url(#linear-gradient-2);
      }

      .cls-11 {
        fill: url(#linear-gradient);
      }

      .cls-12 {
        fill: url(#linear-gradient-43);
      }

      .cls-13 {
        fill: url(#linear-gradient-40);
      }

      .cls-14 {
        fill: url(#linear-gradient-41);
      }

      .cls-15 {
        fill: url(#linear-gradient-42);
      }

      .cls-16 {
        fill: url(#linear-gradient-49);
      }

      .cls-17 {
        fill: url(#linear-gradient-48);
      }

      .cls-18 {
        fill: url(#linear-gradient-45);
      }

      .cls-19 {
        fill: url(#linear-gradient-47);
      }

      .cls-20 {
        fill: url(#linear-gradient-44);
      }

      .cls-21 {
        fill: url(#linear-gradient-46);
      }

      .cls-22 {
        fill: url(#linear-gradient-10);
      }

      .cls-23 {
        fill: url(#linear-gradient-11);
      }

      .cls-24 {
        fill: url(#linear-gradient-12);
      }

      .cls-25 {
        fill: url(#linear-gradient-13);
      }

      .cls-26 {
        fill: url(#linear-gradient-19);
      }

      .cls-27 {
        fill: url(#linear-gradient-14);
      }

      .cls-28 {
        fill: url(#linear-gradient-21);
      }

      .cls-29 {
        fill: url(#linear-gradient-20);
      }

      .cls-30 {
        fill: url(#linear-gradient-22);
      }

      .cls-31 {
        fill: url(#linear-gradient-23);
      }

      .cls-32 {
        fill: url(#linear-gradient-28);
      }

      .cls-33 {
        fill: url(#linear-gradient-25);
      }

      .cls-34 {
        fill: url(#linear-gradient-32);
      }

      .cls-35 {
        fill: url(#linear-gradient-31);
      }

      .cls-36 {
        fill: url(#linear-gradient-33);
      }

      .cls-37 {
        fill: url(#linear-gradient-30);
      }

      .cls-38 {
        fill: url(#linear-gradient-15);
      }

      .cls-39 {
        fill: url(#linear-gradient-16);
      }

      .cls-40 {
        fill: url(#linear-gradient-17);
      }

      .cls-41 {
        fill: url(#linear-gradient-18);
      }

      .cls-42 {
        fill: url(#linear-gradient-35);
      }

      .cls-43 {
        fill: url(#linear-gradient-34);
      }

      .cls-44 {
        fill: url(#linear-gradient-36);
      }

      .cls-45 {
        fill: url(#linear-gradient-38);
      }

      .cls-46 {
        fill: url(#linear-gradient-27);
      }

      .cls-47 {
        fill: url(#linear-gradient-24);
      }

      .cls-48 {
        fill: url(#linear-gradient-26);
      }

      .cls-49 {
        fill: url(#linear-gradient-29);
      }

      .cls-50 {
        fill: url(#linear-gradient-37);
      }

      .cls-51 {
        fill: url(#linear-gradient-39);
      }

      .cls-52 {
        fill: url(#linear-gradient-57);
      }

      .cls-53 {
        fill: url(#linear-gradient-58);
      }

      .cls-54 {
        fill: url(#linear-gradient-59);
      }

      .cls-55 {
        fill: url(#linear-gradient-53);
      }

      .cls-56 {
        fill: url(#linear-gradient-54);
      }

      .cls-57 {
        fill: url(#linear-gradient-55);
      }

      .cls-58 {
        fill: url(#linear-gradient-56);
      }

      .cls-59 {
        fill: url(#linear-gradient-50);
      }

      .cls-60 {
        fill: url(#linear-gradient-51);
      }

      .cls-61 {
        fill: url(#linear-gradient-52);
      }

      .cls-62 {
        fill: url(#linear-gradient-67);
      }

      .cls-63 {
        fill: url(#linear-gradient-68);
      }

      .cls-64 {
        fill: url(#linear-gradient-69);
      }

      .cls-65 {
        fill: url(#linear-gradient-63);
      }

      .cls-66 {
        fill: url(#linear-gradient-64);
      }

      .cls-67 {
        fill: url(#linear-gradient-65);
      }

      .cls-68 {
        fill: url(#linear-gradient-66);
      }

      .cls-69 {
        fill: url(#linear-gradient-60);
      }

      .cls-70 {
        fill: url(#linear-gradient-61);
      }

      .cls-71 {
        fill: url(#linear-gradient-62);
      }

      .cls-72 {
        fill: url(#linear-gradient-79);
      }

      .cls-73 {
        fill: url(#linear-gradient-78);
      }

      .cls-74 {
        fill: url(#linear-gradient-75);
      }

      .cls-75 {
        fill: url(#linear-gradient-72);
      }

      .cls-76 {
        fill: url(#linear-gradient-77);
      }

      .cls-77 {
        fill: url(#linear-gradient-74);
      }

      .cls-78 {
        fill: url(#linear-gradient-76);
      }

      .cls-79 {
        fill: url(#linear-gradient-71);
      }

      .cls-80 {
        fill: url(#linear-gradient-73);
      }

      .cls-81 {
        fill: url(#linear-gradient-70);
      }

      .cls-82 {
        fill: url(#linear-gradient-87);
      }

      .cls-83 {
        fill: url(#linear-gradient-88);
      }

      .cls-84 {
        fill: url(#linear-gradient-89);
      }

      .cls-85 {
        fill: url(#linear-gradient-85);
      }

      .cls-86 {
        fill: url(#linear-gradient-83);
      }

      .cls-87 {
        fill: url(#linear-gradient-82);
      }

      .cls-88 {
        fill: url(#linear-gradient-84);
      }

      .cls-89 {
        fill: url(#linear-gradient-86);
      }

      .cls-90 {
        fill: url(#linear-gradient-81);
      }

      .cls-91 {
        fill: url(#linear-gradient-80);
      }

      .cls-92 {
        fill: url(#linear-gradient-99);
      }

      .cls-93 {
        fill: url(#linear-gradient-96);
      }

      .cls-94 {
        fill: url(#linear-gradient-97);
      }

      .cls-95 {
        fill: url(#linear-gradient-98);
      }

      .cls-96 {
        fill: url(#linear-gradient-92);
      }

      .cls-97 {
        fill: url(#linear-gradient-93);
      }

      .cls-98 {
        fill: url(#linear-gradient-94);
      }

      .cls-99 {
        fill: url(#linear-gradient-91);
      }

      .cls-100 {
        fill: url(#linear-gradient-95);
      }

      .cls-101 {
        fill: url(#linear-gradient-90);
      }

      .cls-102 {
        opacity: .5;
      }

      .cls-103 {
        opacity: .15;
      }

      .cls-104 {
        fill: url(#linear-gradient-159);
      }

      .cls-105 {
        fill: url(#linear-gradient-160);
      }

      .cls-106 {
        fill: url(#linear-gradient-163);
      }

      .cls-107 {
        fill: url(#linear-gradient-161);
      }

      .cls-108 {
        fill: url(#linear-gradient-158);
      }

      .cls-109 {
        fill: url(#linear-gradient-155);
      }

      .cls-110 {
        fill: url(#linear-gradient-164);
      }

      .cls-111 {
        fill: url(#linear-gradient-167);
      }

      .cls-112 {
        fill: url(#linear-gradient-162);
      }

      .cls-113 {
        fill: url(#linear-gradient-165);
      }

      .cls-114 {
        fill: url(#linear-gradient-175);
      }

      .cls-115 {
        fill: url(#linear-gradient-174);
      }

      .cls-116 {
        fill: url(#linear-gradient-173);
      }

      .cls-117 {
        fill: url(#linear-gradient-172);
      }

      .cls-118 {
        fill: url(#linear-gradient-171);
      }

      .cls-119 {
        fill: url(#linear-gradient-170);
      }

      .cls-120 {
        fill: url(#linear-gradient-179);
      }

      .cls-121 {
        fill: url(#linear-gradient-178);
      }

      .cls-122 {
        fill: url(#linear-gradient-177);
      }

      .cls-123 {
        fill: url(#linear-gradient-176);
      }

      .cls-124 {
        fill: url(#linear-gradient-145);
      }

      .cls-125 {
        fill: url(#linear-gradient-144);
      }

      .cls-126 {
        fill: url(#linear-gradient-148);
      }

      .cls-127 {
        fill: url(#linear-gradient-150);
      }

      .cls-128 {
        fill: url(#linear-gradient-156);
      }

      .cls-129 {
        fill: url(#linear-gradient-152);
      }

      .cls-130 {
        fill: url(#linear-gradient-154);
      }

      .cls-131 {
        fill: url(#linear-gradient-153);
      }

      .cls-132 {
        fill: url(#linear-gradient-151);
      }

      .cls-133 {
        fill: url(#linear-gradient-157);
      }

      .cls-134 {
        fill: url(#linear-gradient-149);
      }

      .cls-135 {
        fill: url(#linear-gradient-168);
      }

      .cls-136 {
        fill: url(#linear-gradient-166);
      }

      .cls-137 {
        fill: url(#linear-gradient-169);
      }

      .cls-138 {
        fill: url(#linear-gradient-141);
      }

      .cls-139 {
        fill: url(#linear-gradient-140);
      }

      .cls-140 {
        fill: url(#linear-gradient-147);
      }

      .cls-141 {
        fill: url(#linear-gradient-146);
      }

      .cls-142 {
        fill: url(#linear-gradient-143);
      }

      .cls-143 {
        fill: url(#linear-gradient-142);
      }

      .cls-144 {
        fill: url(#linear-gradient-107);
      }

      .cls-145 {
        fill: url(#linear-gradient-108);
      }

      .cls-146 {
        fill: url(#linear-gradient-109);
      }

      .cls-147 {
        fill: url(#linear-gradient-105);
      }

      .cls-148 {
        fill: url(#linear-gradient-106);
      }

      .cls-149 {
        fill: url(#linear-gradient-104);
      }

      .cls-150 {
        fill: url(#linear-gradient-103);
      }

      .cls-151 {
        fill: url(#linear-gradient-102);
      }

      .cls-152 {
        fill: url(#linear-gradient-101);
      }

      .cls-153 {
        fill: url(#linear-gradient-100);
      }

      .cls-154 {
        fill: url(#linear-gradient-124);
      }

      .cls-155 {
        fill: url(#linear-gradient-125);
      }

      .cls-156 {
        fill: url(#linear-gradient-123);
      }

      .cls-157 {
        fill: url(#linear-gradient-129);
      }

      .cls-158 {
        fill: url(#linear-gradient-122);
      }

      .cls-159 {
        fill: url(#linear-gradient-126);
      }

      .cls-160 {
        fill: url(#linear-gradient-121);
      }

      .cls-161 {
        fill: url(#linear-gradient-120);
      }

      .cls-162 {
        fill: url(#linear-gradient-233);
      }

      .cls-163 {
        fill: url(#linear-gradient-234);
      }

      .cls-164 {
        fill: url(#linear-gradient-237);
      }

      .cls-165 {
        fill: url(#linear-gradient-231);
      }

      .cls-166 {
        fill: url(#linear-gradient-232);
      }

      .cls-167 {
        fill: url(#linear-gradient-230);
      }

      .cls-168 {
        fill: url(#linear-gradient-235);
      }

      .cls-169 {
        fill: url(#linear-gradient-236);
      }

      .cls-170 {
        fill: url(#linear-gradient-209);
      }

      .cls-171 {
        fill: url(#linear-gradient-226);
      }

      .cls-172 {
        fill: url(#linear-gradient-224);
      }

      .cls-173 {
        fill: url(#linear-gradient-225);
      }

      .cls-174 {
        fill: url(#linear-gradient-222);
      }

      .cls-175 {
        fill: url(#linear-gradient-220);
      }

      .cls-176 {
        fill: url(#linear-gradient-221);
      }

      .cls-177 {
        fill: url(#linear-gradient-223);
      }

      .cls-178 {
        fill: url(#linear-gradient-228);
      }

      .cls-179 {
        fill: url(#linear-gradient-229);
      }

      .cls-180 {
        fill: url(#linear-gradient-227);
      }

      .cls-181 {
        fill: url(#linear-gradient-215);
      }

      .cls-182 {
        fill: url(#linear-gradient-212);
      }

      .cls-183 {
        fill: url(#linear-gradient-218);
      }

      .cls-184 {
        fill: url(#linear-gradient-219);
      }

      .cls-185 {
        fill: url(#linear-gradient-216);
      }

      .cls-186 {
        fill: url(#linear-gradient-210);
      }

      .cls-187 {
        fill: url(#linear-gradient-211);
      }

      .cls-188 {
        fill: url(#linear-gradient-217);
      }

      .cls-189 {
        fill: url(#linear-gradient-214);
      }

      .cls-190 {
        fill: url(#linear-gradient-213);
      }

      .cls-191 {
        fill: url(#linear-gradient-208);
      }

      .cls-192 {
        fill: url(#linear-gradient-207);
      }

      .cls-193 {
        fill: url(#linear-gradient-206);
      }

      .cls-194 {
        fill: url(#linear-gradient-205);
      }

      .cls-195 {
        fill: url(#linear-gradient-203);
      }

      .cls-196 {
        fill: url(#linear-gradient-204);
      }

      .cls-197 {
        fill: url(#linear-gradient-201);
      }

      .cls-198 {
        fill: url(#linear-gradient-202);
      }

      .cls-199 {
        fill: url(#linear-gradient-200);
      }

      .cls-200 {
        fill: url(#linear-gradient-190);
      }

      .cls-201 {
        fill: url(#linear-gradient-196);
      }

      .cls-202 {
        fill: url(#linear-gradient-197);
      }

      .cls-203 {
        fill: url(#linear-gradient-192);
      }

      .cls-204 {
        fill: url(#linear-gradient-198);
      }

      .cls-205 {
        fill: url(#linear-gradient-193);
      }

      .cls-206 {
        fill: url(#linear-gradient-191);
      }

      .cls-207 {
        fill: url(#linear-gradient-195);
      }

      .cls-208 {
        fill: url(#linear-gradient-194);
      }

      .cls-209 {
        fill: url(#linear-gradient-189);
      }

      .cls-210 {
        fill: url(#linear-gradient-187);
      }

      .cls-211 {
        fill: url(#linear-gradient-188);
      }

      .cls-212 {
        fill: url(#linear-gradient-186);
      }

      .cls-213 {
        fill: url(#linear-gradient-181);
      }

      .cls-214 {
        fill: url(#linear-gradient-185);
      }

      .cls-215 {
        fill: url(#linear-gradient-184);
      }

      .cls-216 {
        fill: url(#linear-gradient-183);
      }

      .cls-217 {
        fill: url(#linear-gradient-182);
      }

      .cls-218 {
        fill: url(#linear-gradient-180);
      }

      .cls-219 {
        fill: url(#linear-gradient-116);
      }

      .cls-220 {
        fill: url(#linear-gradient-117);
      }

      .cls-221 {
        fill: url(#linear-gradient-115);
      }

      .cls-222 {
        fill: url(#linear-gradient-110);
      }

      .cls-223 {
        fill: url(#linear-gradient-114);
      }

      .cls-224 {
        fill: url(#linear-gradient-113);
      }

      .cls-225 {
        fill: url(#linear-gradient-118);
      }

      .cls-226 {
        fill: url(#linear-gradient-112);
      }

      .cls-227 {
        fill: url(#linear-gradient-111);
      }

      .cls-228 {
        fill: url(#linear-gradient-133);
      }

      .cls-229 {
        fill: url(#linear-gradient-139);
      }

      .cls-230 {
        fill: url(#linear-gradient-138);
      }

      .cls-231 {
        fill: url(#linear-gradient-136);
      }

      .cls-232 {
        fill: url(#linear-gradient-135);
      }

      .cls-233 {
        fill: url(#linear-gradient-134);
      }

      .cls-234 {
        fill: url(#linear-gradient-137);
      }

      .cls-235 {
        fill: url(#linear-gradient-132);
      }

      .cls-236 {
        fill: url(#linear-gradient-131);
      }

      .cls-237 {
        fill: url(#linear-gradient-130);
      }

      .cls-238 {
        fill: url(#linear-gradient-199);
      }

      .cls-239 {
        fill: url(#linear-gradient-128);
      }

      .cls-240 {
        fill: url(#linear-gradient-127);
      }

      .cls-241 {
        fill: url(#linear-gradient-119);
      }

      .cls-242 {
        clip-path: url(#clippath);
      }
    </style>
    <clipPath id="clippath">
      <rect class="cls-1" y="0" width="396" height="288"/>
    </clipPath>
    <linearGradient id="linear-gradient" x1="-389.27" y1="355.1" x2="-616.31" y2="4.55" gradientTransform="translate(-432.31 288) rotate(-180)" gradientUnits="userSpaceOnUse">
      <stop offset="0" stop-color="#f60"/>
      <stop offset=".27" stop-color="#fb7216"/>
      <stop offset=".84" stop-color="#f19450"/>
      <stop offset="1" stop-color="#ef9e62"/>
    </linearGradient>
    <linearGradient id="linear-gradient-2" x1="-357.95" y1="334.82" x2="-584.99" y2="-15.74" xlink:href="#linear-gradient"/>
    <linearGradient id="linear-gradient-3" x1="-326.62" y1="314.53" x2="-553.67" y2="-36.03" xlink:href="#linear-gradient"/>
    <linearGradient id="linear-gradient-4" x1="-295.3" y1="294.24" x2="-522.34" y2="-56.31" xlink:href="#linear-gradient"/>
    <linearGradient id="linear-gradient-5" x1="-267.7" y1="276.37" x2="-494.74" y2="-74.19" xlink:href="#linear-gradient"/>
    <linearGradient id="linear-gradient-6" x1="-547.79" y1="457.77" x2="-774.84" y2="107.22" xlink:href="#linear-gradient"/>
    <linearGradient id="linear-gradient-7" x1="-391.18" y1="356.34" x2="-618.22" y2="5.78" xlink:href="#linear-gradient"/>
    <linearGradient id="linear-gradient-8" x1="-359.85" y1="336.05" x2="-586.9" y2="-14.5" xlink:href="#linear-gradient"/>
    <linearGradient id="linear-gradient-9" x1="-328.53" y1="315.76" x2="-555.57" y2="-34.79" xlink:href="#linear-gradient"/>
    <linearGradient id="linear-gradient-10" x1="-297.21" y1="295.48" x2="-524.25" y2="-55.08" xlink:href="#linear-gradient"/>
    <linearGradient id="linear-gradient-11" x1="-361.76" y1="337.29" x2="-588.81" y2="-13.27" xlink:href="#linear-gradient"/>
    <linearGradient id="linear-gradient-12" x1="-330.44" y1="317" x2="-557.48" y2="-33.56" xlink:href="#linear-gradient"/>
    <linearGradient id="linear-gradient-13" x1="-302.83" y1="299.12" x2="-529.88" y2="-51.43" xlink:href="#linear-gradient"/>
    <linearGradient id="linear-gradient-14" x1="-363.67" y1="338.52" x2="-590.71" y2="-12.03" xlink:href="#linear-gradient"/>
    <linearGradient id="linear-gradient-15" x1="-332.34" y1="318.24" x2="-559.39" y2="-32.32" xlink:href="#linear-gradient"/>
    <linearGradient id="linear-gradient-16" x1="-584.84" y1="481.77" x2="-811.88" y2="131.21" xlink:href="#linear-gradient"/>
    <linearGradient id="linear-gradient-17" x1="-365.58" y1="339.76" x2="-592.62" y2="-10.8" xlink:href="#linear-gradient"/>
    <linearGradient id="linear-gradient-18" x1="-337.97" y1="321.88" x2="-565.02" y2="-28.68" xlink:href="#linear-gradient"/>
    <linearGradient id="linear-gradient-19" x1="-618.07" y1="503.29" x2="-845.12" y2="152.73" xlink:href="#linear-gradient"/>
    <linearGradient id="linear-gradient-20" x1="-586.75" y1="483" x2="-813.79" y2="132.45" xlink:href="#linear-gradient"/>
    <linearGradient id="linear-gradient-21" x1="-555.42" y1="462.72" x2="-782.47" y2="112.16" xlink:href="#linear-gradient"/>
    <linearGradient id="linear-gradient-22" x1="-524.1" y1="442.43" x2="-751.15" y2="91.87" xlink:href="#linear-gradient"/>
    <linearGradient id="linear-gradient-23" x1="-619.98" y1="504.53" x2="-847.02" y2="153.97" xlink:href="#linear-gradient"/>
    <linearGradient id="linear-gradient-24" x1="-588.66" y1="484.24" x2="-815.7" y2="133.68" xlink:href="#linear-gradient"/>
    <linearGradient id="linear-gradient-25" x1="-557.33" y1="463.95" x2="-784.38" y2="113.4" xlink:href="#linear-gradient"/>
    <linearGradient id="linear-gradient-26" x1="-650.65" y1="524.39" x2="-877.69" y2="173.83" xlink:href="#linear-gradient"/>
    <linearGradient id="linear-gradient-27" x1="-619.32" y1="504.1" x2="-846.37" y2="153.55" xlink:href="#linear-gradient"/>
    <linearGradient id="linear-gradient-28" x1="-588" y1="483.82" x2="-815.05" y2="133.26" xlink:href="#linear-gradient"/>
    <linearGradient id="linear-gradient-29" x1="-556.68" y1="463.53" x2="-783.72" y2="112.97" xlink:href="#linear-gradient"/>
    <linearGradient id="linear-gradient-30" x1="-431.38" y1="382.38" x2="-658.43" y2="31.82" xlink:href="#linear-gradient"/>
    <linearGradient id="linear-gradient-31" x1="-400.06" y1="362.09" x2="-627.1" y2="11.54" xlink:href="#linear-gradient"/>
    <linearGradient id="linear-gradient-32" x1="-326.01" y1="314.13" x2="-553.05" y2="-36.43" xlink:href="#linear-gradient"/>
    <linearGradient id="linear-gradient-33" x1="-285.18" y1="287.69" x2="-512.23" y2="-62.87" xlink:href="#linear-gradient"/>
    <linearGradient id="linear-gradient-34" x1="-256.82" y1="269.32" x2="-483.86" y2="-81.24" xlink:href="#linear-gradient"/>
    <linearGradient id="linear-gradient-35" x1="-325.85" y1="314.03" x2="-552.89" y2="-36.53" xlink:href="#linear-gradient"/>
    <linearGradient id="linear-gradient-36" x1="-285.03" y1="287.59" x2="-512.07" y2="-62.97" xlink:href="#linear-gradient"/>
    <linearGradient id="linear-gradient-37" x1="-328.33" y1="315.64" x2="-555.38" y2="-34.92" xlink:href="#linear-gradient"/>
    <linearGradient id="linear-gradient-38" x1="-290.98" y1="291.44" x2="-518.02" y2="-59.11" xlink:href="#linear-gradient"/>
    <linearGradient id="linear-gradient-39" x1="-575.76" y1="475.89" x2="-802.8" y2="125.33" xlink:href="#linear-gradient"/>
    <linearGradient id="linear-gradient-40" x1="-534.94" y1="449.45" x2="-761.98" y2="98.89" xlink:href="#linear-gradient"/>
    <linearGradient id="linear-gradient-41" x1="-615.67" y1="501.73" x2="-842.71" y2="151.18" xlink:href="#linear-gradient"/>
    <linearGradient id="linear-gradient-42" x1="-578.24" y1="477.5" x2="-805.29" y2="126.94" xlink:href="#linear-gradient"/>
    <linearGradient id="linear-gradient-43" x1="-537.42" y1="451.06" x2="-764.47" y2="100.5" xlink:href="#linear-gradient"/>
    <linearGradient id="linear-gradient-44" x1="-621.55" y1="505.55" x2="-848.6" y2="154.99" xlink:href="#linear-gradient"/>
    <linearGradient id="linear-gradient-45" x1="-580.73" y1="479.11" x2="-807.78" y2="128.55" xlink:href="#linear-gradient"/>
    <linearGradient id="linear-gradient-46" x1="-376.62" y1="346.91" x2="-603.66" y2="-3.65" xlink:href="#linear-gradient"/>
    <linearGradient id="linear-gradient-47" x1="-657.12" y1="528.58" x2="-884.17" y2="178.03" xlink:href="#linear-gradient"/>
    <linearGradient id="linear-gradient-48" x1="-624.04" y1="507.16" x2="-851.08" y2="156.6" xlink:href="#linear-gradient"/>
    <linearGradient id="linear-gradient-49" x1="-583.22" y1="480.72" x2="-810.26" y2="130.16" xlink:href="#linear-gradient"/>
    <linearGradient id="linear-gradient-50" x1="-419.92" y1="374.96" x2="-646.97" y2="24.4" xlink:href="#linear-gradient"/>
    <linearGradient id="linear-gradient-51" x1="-382.57" y1="350.76" x2="-609.61" y2=".21" xlink:href="#linear-gradient"/>
    <linearGradient id="linear-gradient-52" x1="-658.92" y1="529.75" x2="-885.97" y2="179.19" xlink:href="#linear-gradient"/>
    <linearGradient id="linear-gradient-53" x1="-618.1" y1="503.31" x2="-845.14" y2="152.75" xlink:href="#linear-gradient"/>
    <linearGradient id="linear-gradient-54" x1="-577.27" y1="476.87" x2="-804.32" y2="126.31" xlink:href="#linear-gradient"/>
    <linearGradient id="linear-gradient-55" x1="-536.45" y1="450.43" x2="-763.5" y2="99.87" xlink:href="#linear-gradient"/>
    <linearGradient id="linear-gradient-56" x1="-495.63" y1="423.99" x2="-722.67" y2="73.43" xlink:href="#linear-gradient"/>
    <linearGradient id="linear-gradient-57" x1="-454.81" y1="397.55" x2="-681.85" y2="46.99" xlink:href="#linear-gradient"/>
    <linearGradient id="linear-gradient-58" x1="-413.98" y1="371.11" x2="-641.03" y2="20.55" xlink:href="#linear-gradient"/>
    <linearGradient id="linear-gradient-59" x1="-526.28" y1="443.83" x2="-753.32" y2="93.28" xlink:href="#linear-gradient"/>
    <linearGradient id="linear-gradient-60" x1="-408.88" y1="367.81" x2="-635.92" y2="17.25" xlink:href="#linear-gradient"/>
    <linearGradient id="linear-gradient-61" x1="-399.08" y1="361.45" x2="-626.12" y2="10.9" xlink:href="#linear-gradient"/>
    <linearGradient id="linear-gradient-62" x1="-410.79" y1="369.04" x2="-637.83" y2="18.48" xlink:href="#linear-gradient"/>
    <linearGradient id="linear-gradient-63" x1="-400.98" y1="362.69" x2="-628.03" y2="12.13" xlink:href="#linear-gradient"/>
    <linearGradient id="linear-gradient-64" x1="-377.56" y1="347.52" x2="-604.6" y2="-3.04" xlink:href="#linear-gradient"/>
    <linearGradient id="linear-gradient-65" x1="-367.75" y1="341.17" x2="-594.8" y2="-9.39" xlink:href="#linear-gradient"/>
    <linearGradient id="linear-gradient-66" x1="-379.46" y1="348.75" x2="-606.51" y2="-1.8" xlink:href="#linear-gradient"/>
    <linearGradient id="linear-gradient-67" x1="-346.24" y1="327.23" x2="-573.28" y2="-23.33" xlink:href="#linear-gradient"/>
    <linearGradient id="linear-gradient-68" x1="-336.43" y1="320.88" x2="-563.47" y2="-29.68" xlink:href="#linear-gradient"/>
    <linearGradient id="linear-gradient-69" x1="-348.14" y1="328.47" x2="-575.18" y2="-22.09" xlink:href="#linear-gradient"/>
    <linearGradient id="linear-gradient-70" x1="-314.91" y1="306.95" x2="-541.95" y2="-43.61" xlink:href="#linear-gradient"/>
    <linearGradient id="linear-gradient-71" x1="-305.11" y1="300.59" x2="-532.15" y2="-49.96" xlink:href="#linear-gradient"/>
    <linearGradient id="linear-gradient-72" x1="-316.82" y1="308.18" x2="-543.86" y2="-42.38" xlink:href="#linear-gradient"/>
    <linearGradient id="linear-gradient-73" x1="-283.59" y1="286.66" x2="-510.63" y2="-63.9" xlink:href="#linear-gradient"/>
    <linearGradient id="linear-gradient-74" x1="-273.78" y1="280.31" x2="-500.83" y2="-70.25" xlink:href="#linear-gradient"/>
    <linearGradient id="linear-gradient-75" x1="-285.49" y1="287.89" x2="-512.54" y2="-62.67" xlink:href="#linear-gradient"/>
    <linearGradient id="linear-gradient-76" x1="-559.51" y1="465.36" x2="-786.55" y2="114.8" xlink:href="#linear-gradient"/>
    <linearGradient id="linear-gradient-77" x1="-569.31" y1="471.71" x2="-796.36" y2="121.15" xlink:href="#linear-gradient"/>
    <linearGradient id="linear-gradient-78" x1="-557.6" y1="464.12" x2="-784.64" y2="113.57" xlink:href="#linear-gradient"/>
    <linearGradient id="linear-gradient-79" x1="-536.08" y1="450.19" x2="-763.13" y2="99.63" xlink:href="#linear-gradient"/>
    <linearGradient id="linear-gradient-80" x1="-537.99" y1="451.43" x2="-765.03" y2="100.87" xlink:href="#linear-gradient"/>
    <linearGradient id="linear-gradient-81" x1="-412.69" y1="370.28" x2="-639.74" y2="19.72" xlink:href="#linear-gradient"/>
    <linearGradient id="linear-gradient-82" x1="-369.66" y1="342.4" x2="-596.7" y2="-8.15" xlink:href="#linear-gradient"/>
    <linearGradient id="linear-gradient-83" x1="-381.37" y1="349.99" x2="-608.42" y2="-.57" xlink:href="#linear-gradient"/>
    <linearGradient id="linear-gradient-84" x1="-371.57" y1="343.64" x2="-598.61" y2="-6.92" xlink:href="#linear-gradient"/>
    <linearGradient id="linear-gradient-85" x1="-338.33" y1="322.12" x2="-565.38" y2="-28.44" xlink:href="#linear-gradient"/>
    <linearGradient id="linear-gradient-86" x1="-307.01" y1="301.83" x2="-534.06" y2="-48.73" xlink:href="#linear-gradient"/>
    <linearGradient id="linear-gradient-87" x1="-308.92" y1="303.06" x2="-535.96" y2="-47.49" xlink:href="#linear-gradient"/>
    <linearGradient id="linear-gradient-88" x1="-318.72" y1="309.41" x2="-545.77" y2="-41.14" xlink:href="#linear-gradient"/>
    <linearGradient id="linear-gradient-89" x1="-402.89" y1="363.93" x2="-629.93" y2="13.37" xlink:href="#linear-gradient"/>
    <linearGradient id="linear-gradient-90" x1="-350.05" y1="329.7" x2="-577.09" y2="-20.85" xlink:href="#linear-gradient"/>
    <linearGradient id="linear-gradient-91" x1="-340.24" y1="323.35" x2="-567.29" y2="-27.21" xlink:href="#linear-gradient"/>
    <linearGradient id="linear-gradient-92" x1="-320.63" y1="310.65" x2="-547.68" y2="-39.91" xlink:href="#linear-gradient"/>
    <linearGradient id="linear-gradient-93" x1="-594.64" y1="488.12" x2="-821.69" y2="137.56" xlink:href="#linear-gradient"/>
    <linearGradient id="linear-gradient-94" x1="-604.45" y1="494.48" x2="-831.5" y2="143.91" xlink:href="#linear-gradient"/>
    <linearGradient id="linear-gradient-95" x1="-592.74" y1="486.88" x2="-819.78" y2="136.33" xlink:href="#linear-gradient"/>
    <linearGradient id="linear-gradient-96" x1="-571.22" y1="472.95" x2="-798.26" y2="122.39" xlink:href="#linear-gradient"/>
    <linearGradient id="linear-gradient-97" x1="-563.32" y1="467.83" x2="-790.37" y2="117.28" xlink:href="#linear-gradient"/>
    <linearGradient id="linear-gradient-98" x1="-383.28" y1="351.22" x2="-610.32" y2=".67" xlink:href="#linear-gradient"/>
    <linearGradient id="linear-gradient-99" x1="-373.47" y1="344.87" x2="-600.52" y2="-5.68" xlink:href="#linear-gradient"/>
    <linearGradient id="linear-gradient-100" x1="-375.38" y1="346.11" x2="-602.43" y2="-4.45" xlink:href="#linear-gradient"/>
    <linearGradient id="linear-gradient-101" x1="-385.18" y1="352.46" x2="-612.23" y2="1.9" xlink:href="#linear-gradient"/>
    <linearGradient id="linear-gradient-102" x1="-351.96" y1="330.94" x2="-579" y2="-19.62" xlink:href="#linear-gradient"/>
    <linearGradient id="linear-gradient-103" x1="-353.86" y1="332.17" x2="-580.91" y2="-18.38" xlink:href="#linear-gradient"/>
    <linearGradient id="linear-gradient-104" x1="-344.06" y1="325.82" x2="-571.1" y2="-24.73" xlink:href="#linear-gradient"/>
    <linearGradient id="linear-gradient-105" x1="-342.15" y1="324.59" x2="-569.19" y2="-25.97" xlink:href="#linear-gradient"/>
    <linearGradient id="linear-gradient-106" x1="-573.13" y1="474.18" x2="-800.17" y2="123.63" xlink:href="#linear-gradient"/>
    <linearGradient id="linear-gradient-107" x1="-575.03" y1="475.42" x2="-802.08" y2="124.86" xlink:href="#linear-gradient"/>
    <linearGradient id="linear-gradient-108" x1="-543.71" y1="455.13" x2="-770.76" y2="104.57" xlink:href="#linear-gradient"/>
    <linearGradient id="linear-gradient-109" x1="-533.91" y1="448.78" x2="-760.95" y2="98.23" xlink:href="#linear-gradient"/>
    <linearGradient id="linear-gradient-110" x1="-512.39" y1="434.84" x2="-739.43" y2="84.29" xlink:href="#linear-gradient"/>
    <linearGradient id="linear-gradient-111" x1="-502.58" y1="428.49" x2="-729.63" y2="77.94" xlink:href="#linear-gradient"/>
    <linearGradient id="linear-gradient-112" x1="-629.78" y1="510.88" x2="-856.83" y2="160.32" xlink:href="#linear-gradient"/>
    <linearGradient id="linear-gradient-113" x1="-639.59" y1="517.23" x2="-866.63" y2="166.67" xlink:href="#linear-gradient"/>
    <linearGradient id="linear-gradient-114" x1="-627.87" y1="509.65" x2="-854.92" y2="159.08" xlink:href="#linear-gradient"/>
    <linearGradient id="linear-gradient-115" x1="-606.36" y1="495.71" x2="-833.4" y2="145.15" xlink:href="#linear-gradient"/>
    <linearGradient id="linear-gradient-116" x1="-608.27" y1="496.94" x2="-835.31" y2="146.38" xlink:href="#linear-gradient"/>
    <linearGradient id="linear-gradient-117" x1="-596.55" y1="489.35" x2="-823.6" y2="138.8" xlink:href="#linear-gradient"/>
    <linearGradient id="linear-gradient-118" x1="-565.23" y1="469.07" x2="-792.27" y2="118.51" xlink:href="#linear-gradient"/>
    <linearGradient id="linear-gradient-119" x1="-567.14" y1="470.3" x2="-794.18" y2="119.75" xlink:href="#linear-gradient"/>
    <linearGradient id="linear-gradient-120" x1="-576.94" y1="476.65" x2="-803.99" y2="126.1" xlink:href="#linear-gradient"/>
    <linearGradient id="linear-gradient-121" x1="-514.29" y1="436.08" x2="-741.34" y2="85.52" xlink:href="#linear-gradient"/>
    <linearGradient id="linear-gradient-122" x1="-410.52" y1="368.87" x2="-637.57" y2="18.31" xlink:href="#linear-gradient"/>
    <linearGradient id="linear-gradient-123" x1="-387.1" y1="353.69" x2="-614.14" y2="3.14" xlink:href="#linear-gradient"/>
    <linearGradient id="linear-gradient-124" x1="-377.29" y1="347.35" x2="-604.33" y2="-3.21" xlink:href="#linear-gradient"/>
    <linearGradient id="linear-gradient-125" x1="-355.77" y1="333.41" x2="-582.81" y2="-17.15" xlink:href="#linear-gradient"/>
    <linearGradient id="linear-gradient-126" x1="-598.46" y1="490.59" x2="-825.5" y2="140.03" xlink:href="#linear-gradient"/>
    <linearGradient id="linear-gradient-127" x1="-610.17" y1="498.18" x2="-837.22" y2="147.62" xlink:href="#linear-gradient"/>
    <linearGradient id="linear-gradient-128" x1="-545.62" y1="456.37" x2="-772.66" y2="105.81" xlink:href="#linear-gradient"/>
    <linearGradient id="linear-gradient-129" x1="-535.81" y1="450.01" x2="-762.86" y2="99.46" xlink:href="#linear-gradient"/>
    <linearGradient id="linear-gradient-130" x1="-537.72" y1="451.25" x2="-764.76" y2="100.7" xlink:href="#linear-gradient"/>
    <linearGradient id="linear-gradient-131" x1="-547.53" y1="457.6" x2="-774.57" y2="107.04" xlink:href="#linear-gradient"/>
    <linearGradient id="linear-gradient-132" x1="-422.23" y1="376.45" x2="-649.28" y2="25.9" xlink:href="#linear-gradient"/>
    <linearGradient id="linear-gradient-133" x1="-379.2" y1="348.58" x2="-606.24" y2="-1.97" xlink:href="#linear-gradient"/>
    <linearGradient id="linear-gradient-134" x1="-390.91" y1="356.17" x2="-617.95" y2="5.61" xlink:href="#linear-gradient"/>
    <linearGradient id="linear-gradient-135" x1="-641.5" y1="518.46" x2="-868.54" y2="167.91" xlink:href="#linear-gradient"/>
    <linearGradient id="linear-gradient-136" x1="-631.69" y1="512.11" x2="-858.74" y2="161.56" xlink:href="#linear-gradient"/>
    <linearGradient id="linear-gradient-137" x1="-600.37" y1="491.83" x2="-827.41" y2="141.27" xlink:href="#linear-gradient"/>
    <linearGradient id="linear-gradient-138" x1="-578.85" y1="477.89" x2="-805.89" y2="127.33" xlink:href="#linear-gradient"/>
    <linearGradient id="linear-gradient-139" x1="-569.04" y1="471.54" x2="-796.09" y2="120.98" xlink:href="#linear-gradient"/>
    <linearGradient id="linear-gradient-140" x1="-443.75" y1="390.39" x2="-670.8" y2="39.83" xlink:href="#linear-gradient"/>
    <linearGradient id="linear-gradient-141" x1="-412.43" y1="370.1" x2="-639.47" y2="19.54" xlink:href="#linear-gradient"/>
    <linearGradient id="linear-gradient-142" x1="-375.7" y1="325.93" x2="-652.82" y2="-101.93" gradientTransform="translate(-432.31 288) rotate(-180)" gradientUnits="userSpaceOnUse">
      <stop offset="0" stop-color="#f60"/>
      <stop offset=".14" stop-color="#fd7316"/>
      <stop offset=".44" stop-color="#fa9551"/>
      <stop offset=".86" stop-color="#f5ccaf"/>
      <stop offset="1" stop-color="#f4e0d0"/>
    </linearGradient>
    <linearGradient id="linear-gradient-143" x1="-337.47" y1="301.17" x2="-614.58" y2="-126.7" xlink:href="#linear-gradient-142"/>
    <linearGradient id="linear-gradient-144" x1="-299.24" y1="276.41" x2="-576.35" y2="-151.46" xlink:href="#linear-gradient-142"/>
    <linearGradient id="linear-gradient-145" x1="-272.04" y1="258.8" x2="-549.16" y2="-169.07" xlink:href="#linear-gradient-142"/>
    <linearGradient id="linear-gradient-146" x1="-338.84" y1="302.06" x2="-615.96" y2="-125.81" xlink:href="#linear-gradient-142"/>
    <linearGradient id="linear-gradient-147" x1="-300.61" y1="277.3" x2="-577.73" y2="-150.57" xlink:href="#linear-gradient-142"/>
    <linearGradient id="linear-gradient-148" x1="-273.21" y1="259.55" x2="-550.33" y2="-168.31" xlink:href="#linear-gradient-142"/>
    <linearGradient id="linear-gradient-149" x1="-341.17" y1="303.57" x2="-618.29" y2="-124.3" xlink:href="#linear-gradient-142"/>
    <linearGradient id="linear-gradient-150" x1="-305.16" y1="280.25" x2="-582.28" y2="-147.62" xlink:href="#linear-gradient-142"/>
    <linearGradient id="linear-gradient-151" x1="-605.95" y1="475.06" x2="-883.07" y2="47.19" xlink:href="#linear-gradient-142"/>
    <linearGradient id="linear-gradient-152" x1="-343.5" y1="305.08" x2="-620.62" y2="-122.79" xlink:href="#linear-gradient-142"/>
    <linearGradient id="linear-gradient-153" x1="-316.1" y1="287.33" x2="-593.22" y2="-140.54" xlink:href="#linear-gradient-142"/>
    <linearGradient id="linear-gradient-154" x1="-613.45" y1="479.92" x2="-890.57" y2="52.05" xlink:href="#linear-gradient-142"/>
    <linearGradient id="linear-gradient-155" x1="-575.22" y1="455.16" x2="-852.34" y2="27.29" xlink:href="#linear-gradient-142"/>
    <linearGradient id="linear-gradient-156" x1="-536.99" y1="430.39" x2="-814.1" y2="2.53" xlink:href="#linear-gradient-142"/>
    <linearGradient id="linear-gradient-157" x1="-648.84" y1="502.84" x2="-925.96" y2="74.97" xlink:href="#linear-gradient-142"/>
    <linearGradient id="linear-gradient-158" x1="-615.78" y1="481.43" x2="-892.9" y2="53.56" xlink:href="#linear-gradient-142"/>
    <linearGradient id="linear-gradient-159" x1="-577.55" y1="456.66" x2="-854.66" y2="28.79" xlink:href="#linear-gradient-142"/>
    <linearGradient id="linear-gradient-160" x1="-656.34" y1="507.69" x2="-933.45" y2="79.83" xlink:href="#linear-gradient-142"/>
    <linearGradient id="linear-gradient-161" x1="-618.11" y1="482.93" x2="-895.22" y2="55.06" xlink:href="#linear-gradient-142"/>
    <linearGradient id="linear-gradient-162" x1="-579.87" y1="458.17" x2="-856.99" y2="30.3" xlink:href="#linear-gradient-142"/>
    <linearGradient id="linear-gradient-163" x1="-426.95" y1="359.13" x2="-704.07" y2="-68.74" xlink:href="#linear-gradient-142"/>
    <linearGradient id="linear-gradient-164" x1="-390.94" y1="335.8" x2="-668.06" y2="-92.07" xlink:href="#linear-gradient-142"/>
    <linearGradient id="linear-gradient-165" x1="-678.43" y1="522.01" x2="-955.55" y2="94.14" xlink:href="#linear-gradient-142"/>
    <linearGradient id="linear-gradient-166" x1="-653.58" y1="505.91" x2="-930.7" y2="78.04" xlink:href="#linear-gradient-142"/>
    <linearGradient id="linear-gradient-167" x1="-615.35" y1="481.15" x2="-892.47" y2="53.28" xlink:href="#linear-gradient-142"/>
    <linearGradient id="linear-gradient-168" x1="-577.12" y1="456.39" x2="-854.24" y2="28.52" xlink:href="#linear-gradient-142"/>
    <linearGradient id="linear-gradient-169" x1="-424.19" y1="357.34" x2="-701.31" y2="-70.53" xlink:href="#linear-gradient-142"/>
    <linearGradient id="linear-gradient-170" x1="-396.79" y1="339.59" x2="-673.9" y2="-88.27" xlink:href="#linear-gradient-142"/>
    <linearGradient id="linear-gradient-171" x1="-300.08" y1="276.96" x2="-577.19" y2="-150.91" xlink:href="#linear-gradient-142"/>
    <linearGradient id="linear-gradient-172" x1="-274.7" y1="260.52" x2="-551.81" y2="-167.35" xlink:href="#linear-gradient-142"/>
    <linearGradient id="linear-gradient-173" x1="-550.21" y1="438.96" x2="-827.33" y2="11.09" xlink:href="#linear-gradient-142"/>
    <linearGradient id="linear-gradient-174" x1="-595.9" y1="468.55" x2="-873.02" y2="40.68" xlink:href="#linear-gradient-142"/>
    <linearGradient id="linear-gradient-175" x1="-553.24" y1="440.92" x2="-830.36" y2="13.06" xlink:href="#linear-gradient-142"/>
    <linearGradient id="linear-gradient-176" x1="-606.11" y1="475.16" x2="-883.22" y2="47.29" xlink:href="#linear-gradient-142"/>
    <linearGradient id="linear-gradient-177" x1="-357.07" y1="313.87" x2="-634.19" y2="-114" xlink:href="#linear-gradient-142"/>
    <linearGradient id="linear-gradient-178" x1="-651.79" y1="504.75" x2="-928.91" y2="76.88" xlink:href="#linear-gradient-142"/>
    <linearGradient id="linear-gradient-179" x1="-609.14" y1="477.13" x2="-886.26" y2="49.26" xlink:href="#linear-gradient-142"/>
    <linearGradient id="linear-gradient-180" x1="-409.83" y1="348.04" x2="-686.95" y2="-79.83" xlink:href="#linear-gradient-142"/>
    <linearGradient id="linear-gradient-181" x1="-367.9" y1="320.88" x2="-645.02" y2="-106.98" xlink:href="#linear-gradient-142"/>
    <linearGradient id="linear-gradient-182" x1="-660.88" y1="510.64" x2="-938" y2="82.77" xlink:href="#linear-gradient-142"/>
    <linearGradient id="linear-gradient-183" x1="-611.06" y1="478.37" x2="-888.17" y2="50.5" xlink:href="#linear-gradient-142"/>
    <linearGradient id="linear-gradient-184" x1="-561.23" y1="446.1" x2="-838.35" y2="18.23" xlink:href="#linear-gradient-142"/>
    <linearGradient id="linear-gradient-185" x1="-511.4" y1="413.83" x2="-788.52" y2="-14.04" xlink:href="#linear-gradient-142"/>
    <linearGradient id="linear-gradient-186" x1="-461.58" y1="381.56" x2="-738.7" y2="-46.31" xlink:href="#linear-gradient-142"/>
    <linearGradient id="linear-gradient-187" x1="-411.85" y1="349.35" x2="-688.96" y2="-78.52" xlink:href="#linear-gradient-142"/>
    <linearGradient id="linear-gradient-188" x1="-350.81" y1="309.82" x2="-627.93" y2="-118.05" xlink:href="#linear-gradient-142"/>
    <linearGradient id="linear-gradient-189" x1="-274.35" y1="260.29" x2="-551.47" y2="-167.58" xlink:href="#linear-gradient-142"/>
    <linearGradient id="linear-gradient-190" x1="-389.04" y1="334.58" x2="-666.16" y2="-93.29" xlink:href="#linear-gradient-142"/>
    <linearGradient id="linear-gradient-191" x1="-312.58" y1="285.06" x2="-589.7" y2="-142.82" xlink:href="#linear-gradient-142"/>
    <linearGradient id="linear-gradient-192" x1="-288.64" y1="269.55" x2="-565.76" y2="-158.32" xlink:href="#linear-gradient-142"/>
    <linearGradient id="linear-gradient-193" x1="-584.85" y1="461.4" x2="-861.97" y2="33.53" xlink:href="#linear-gradient-142"/>
    <linearGradient id="linear-gradient-194" x1="-365.11" y1="319.07" x2="-642.22" y2="-108.79" xlink:href="#linear-gradient-142"/>
    <linearGradient id="linear-gradient-195" x1="-353.14" y1="311.32" x2="-630.26" y2="-116.55" xlink:href="#linear-gradient-142"/>
    <linearGradient id="linear-gradient-196" x1="-355.47" y1="312.83" x2="-632.59" y2="-115.04" xlink:href="#linear-gradient-142"/>
    <linearGradient id="linear-gradient-197" x1="-367.43" y1="320.58" x2="-644.55" y2="-107.29" xlink:href="#linear-gradient-142"/>
    <linearGradient id="linear-gradient-198" x1="-326.87" y1="294.31" x2="-603.99" y2="-133.56" xlink:href="#linear-gradient-142"/>
    <linearGradient id="linear-gradient-199" x1="-329.2" y1="295.82" x2="-606.32" y2="-132.05" xlink:href="#linear-gradient-142"/>
    <linearGradient id="linear-gradient-200" x1="-317.24" y1="288.07" x2="-594.35" y2="-139.8" xlink:href="#linear-gradient-142"/>
    <linearGradient id="linear-gradient-201" x1="-314.91" y1="286.56" x2="-592.03" y2="-141.31" xlink:href="#linear-gradient-142"/>
    <linearGradient id="linear-gradient-202" x1="-599.15" y1="470.66" x2="-876.27" y2="42.79" xlink:href="#linear-gradient-142"/>
    <linearGradient id="linear-gradient-203" x1="-560.92" y1="445.9" x2="-838.04" y2="18.03" xlink:href="#linear-gradient-142"/>
    <linearGradient id="linear-gradient-204" x1="-548.95" y1="438.14" x2="-826.07" y2="10.28" xlink:href="#linear-gradient-142"/>
    <linearGradient id="linear-gradient-205" x1="-522.69" y1="421.13" x2="-799.81" y2="-6.73" xlink:href="#linear-gradient-142"/>
    <linearGradient id="linear-gradient-206" x1="-510.72" y1="413.39" x2="-787.84" y2="-14.49" xlink:href="#linear-gradient-142"/>
    <linearGradient id="linear-gradient-207" x1="-587.19" y1="462.9" x2="-864.3" y2="35.04" xlink:href="#linear-gradient-142"/>
    <linearGradient id="linear-gradient-208" x1="-589.51" y1="464.41" x2="-866.63" y2="36.55" xlink:href="#linear-gradient-142"/>
    <linearGradient id="linear-gradient-209" x1="-601.48" y1="472.17" x2="-878.6" y2="44.3" xlink:href="#linear-gradient-142"/>
    <linearGradient id="linear-gradient-210" x1="-525.02" y1="422.64" x2="-802.14" y2="-5.23" xlink:href="#linear-gradient-142"/>
    <linearGradient id="linear-gradient-211" x1="-398.36" y1="340.61" x2="-675.47" y2="-87.26" xlink:href="#linear-gradient-142"/>
    <linearGradient id="linear-gradient-212" x1="-369.76" y1="322.09" x2="-646.88" y2="-105.78" xlink:href="#linear-gradient-142"/>
    <linearGradient id="linear-gradient-213" x1="-357.8" y1="314.34" x2="-634.91" y2="-113.53" xlink:href="#linear-gradient-142"/>
    <linearGradient id="linear-gradient-214" x1="-331.53" y1="297.33" x2="-608.65" y2="-130.54" xlink:href="#linear-gradient-142"/>
    <linearGradient id="linear-gradient-215" x1="-627.75" y1="489.17" x2="-904.86" y2="61.31" xlink:href="#linear-gradient-142"/>
    <linearGradient id="linear-gradient-216" x1="-642.04" y1="498.44" x2="-919.16" y2="70.57" xlink:href="#linear-gradient-142"/>
    <linearGradient id="linear-gradient-217" x1="-563.25" y1="447.41" x2="-840.37" y2="19.54" xlink:href="#linear-gradient-142"/>
    <linearGradient id="linear-gradient-218" x1="-551.28" y1="439.65" x2="-828.4" y2="11.79" xlink:href="#linear-gradient-142"/>
    <linearGradient id="linear-gradient-219" x1="-553.61" y1="441.16" x2="-830.73" y2="13.29" xlink:href="#linear-gradient-142"/>
    <linearGradient id="linear-gradient-220" x1="-565.58" y1="448.91" x2="-842.7" y2="21.04" xlink:href="#linear-gradient-142"/>
    <linearGradient id="linear-gradient-221" x1="-412.65" y1="349.87" x2="-689.77" y2="-78" xlink:href="#linear-gradient-142"/>
    <linearGradient id="linear-gradient-222" x1="-360.12" y1="315.85" x2="-637.24" y2="-112.02" xlink:href="#linear-gradient-142"/>
    <linearGradient id="linear-gradient-223" x1="-374.42" y1="325.11" x2="-651.54" y2="-102.77" xlink:href="#linear-gradient-142"/>
    <linearGradient id="linear-gradient-224" x1="-644.37" y1="499.94" x2="-921.49" y2="72.08" xlink:href="#linear-gradient-142"/>
    <linearGradient id="linear-gradient-225" x1="-630.07" y1="490.69" x2="-907.19" y2="62.81" xlink:href="#linear-gradient-142"/>
    <linearGradient id="linear-gradient-226" x1="-603.81" y1="473.67" x2="-880.93" y2="45.81" xlink:href="#linear-gradient-142"/>
    <linearGradient id="linear-gradient-227" x1="-591.84" y1="465.92" x2="-868.96" y2="38.05" xlink:href="#linear-gradient-142"/>
    <linearGradient id="linear-gradient-228" x1="-594.17" y1="467.43" x2="-871.29" y2="39.56" xlink:href="#linear-gradient-142"/>
    <linearGradient id="linear-gradient-229" x1="-567.91" y1="450.42" x2="-845.02" y2="22.55" xlink:href="#linear-gradient-142"/>
    <linearGradient id="linear-gradient-230" x1="-438.92" y1="366.88" x2="-716.03" y2="-60.99" xlink:href="#linear-gradient-142"/>
    <linearGradient id="linear-gradient-231" x1="-400.68" y1="342.12" x2="-677.8" y2="-85.75" xlink:href="#linear-gradient-142"/>
    <linearGradient id="linear-gradient-232" x1="-632.4" y1="492.19" x2="-909.52" y2="64.32" xlink:href="#linear-gradient-142"/>
    <linearGradient id="linear-gradient-233" x1="-606.14" y1="475.18" x2="-883.25" y2="47.31" xlink:href="#linear-gradient-142"/>
    <linearGradient id="linear-gradient-234" x1="-453.21" y1="376.14" x2="-730.33" y2="-51.73" xlink:href="#linear-gradient-142"/>
    <linearGradient id="linear-gradient-235" x1="-414.98" y1="351.38" x2="-692.1" y2="-76.5" xlink:href="#linear-gradient-142"/>
    <linearGradient id="linear-gradient-236" x1="-403.01" y1="343.62" x2="-680.13" y2="-84.24" xlink:href="#linear-gradient-142"/>
    <linearGradient id="linear-gradient-237" x1="198" y1="92.75" x2="198" y2="307.82" gradientUnits="userSpaceOnUse">
      <stop offset="0" stop-color="#0e0b0b" stop-opacity="0"/>
      <stop offset=".04" stop-color="#0e0b0b" stop-opacity=".09"/>
      <stop offset=".46" stop-color="#0e0b0b" stop-opacity=".78"/>
      <stop offset="1" stop-color="#0e0b0b"/>
    </linearGradient>
  </defs>
  <g class="cls-242">
    <rect class="cls-2" y="0" width="396" height="288"/>
    <g class="cls-102">
      <g>
        <path class="cls-11" d="M166.01,229.89l.05.03,22.28,12.86v25.78l-.05.03-22.28,12.86-.05-.03-22.28-12.86v-25.78l.05-.03,22.28-12.86ZM188.14,242.9l-22.14-12.78-22.13,12.78v25.56l22.13,12.78,22.14-12.78v-25.56Z"/>
        <path class="cls-10" d="M121.55,229.89l.05.03,22.28,12.86v25.78l-.05.03-22.28,12.86-.05-.03-22.28-12.86v-25.78l.05-.03,22.28-12.86ZM143.68,242.9l-22.13-12.78-22.14,12.78v25.56l22.14,12.78,22.13-12.78v-25.56Z"/>
        <path class="cls-9" d="M77.08,229.89l.05.03,22.28,12.86v25.78l-.05.03-22.28,12.86-.05-.03-22.28-12.86v-25.78l.05-.03,22.28-12.86ZM99.22,242.9l-22.14-12.78-22.13,12.78v25.56l22.13,12.78,22.14-12.78v-25.56Z"/>
        <path class="cls-8" d="M32.62,229.89l.05.03,22.28,12.86v25.78l-.05.03-22.28,12.86-.05-.03-22.28-12.86v-25.78l.05-.03,22.28-12.86ZM54.76,242.9l-22.14-12.78-22.13,12.78v25.56l22.13,12.78,22.14-12.78v-25.56Z"/>
        <polygon class="cls-5" points="-17.3 233.27 -11.84 230.12 10.29 242.9 10.29 268.46 -11.84 281.24 -17.3 278.08 -17.3 278.31 -11.89 281.43 -11.84 281.46 10.44 268.6 10.49 268.57 10.49 242.79 -11.79 229.92 -11.84 229.89 -17.3 233.05 -17.3 233.27"/>
        <path class="cls-6" d="M366.09,191.39l.05.03,22.28,12.86v25.78l-.05.03-22.28,12.86-.05-.03-22.28-12.86v-25.78l.05-.03,22.28-12.86ZM388.23,204.39l-22.13-12.78-22.14,12.78v25.56l22.14,12.78,22.13-12.78v-25.56Z"/>
        <path class="cls-4" d="M143.78,191.39l.05.03,22.28,12.86v25.78l-.05.03-22.28,12.86-.05-.03-22.28-12.86v-25.78l.05-.03,22.28-12.86ZM165.91,204.39l-22.13-12.78-22.14,12.78v25.56l22.14,12.78,22.13-12.78v-25.56Z"/>
        <path class="cls-3" d="M99.31,191.39l.05.03,22.28,12.86v25.78l-.05.03-22.28,12.86-.05-.03-22.28-12.86v-25.78l.05-.03,22.28-12.86ZM121.45,204.39l-22.14-12.78-22.13,12.78v25.56l22.13,12.78,22.14-12.78v-25.56Z"/>
        <path class="cls-7" d="M54.85,191.39l.05.03,22.28,12.86v25.78l-.05.03-22.28,12.86-.05-.03-22.28-12.86v-25.78l.05-.03,22.28-12.86ZM76.99,204.39l-22.13-12.78-22.14,12.78v25.56l22.14,12.78,22.13-12.78v-25.56Z"/>
        <path class="cls-22" d="M10.39,191.39l.05.03,22.28,12.86v25.78l-.05.03-22.28,12.86-.05-.03-22.28-12.86v-25.78l.05-.03,22.28-12.86ZM32.52,204.39l-22.13-12.78-22.13,12.78v25.56l22.13,12.78,22.13-12.78v-25.56Z"/>
        <path class="cls-23" d="M77.08,152.88l.05.03,22.28,12.86v25.78l-.05.03-22.28,12.86-.05-.03-22.28-12.86v-25.78l.05-.03,22.28-12.86ZM99.22,165.88l-22.14-12.78-22.13,12.78v25.56l22.13,12.78,22.14-12.78v-25.56Z"/>
        <path class="cls-24" d="M32.62,152.88l.05.03,22.28,12.86v25.78l-.05.03-22.28,12.86-.05-.03-22.28-12.86v-25.78l.05-.03,22.28-12.86ZM54.76,165.88l-22.14-12.78-22.13,12.78v25.56l22.13,12.78,22.14-12.78v-25.56Z"/>
        <polygon class="cls-25" points="-17.3 156.26 -11.84 153.11 10.29 165.88 10.29 191.44 -11.84 204.22 -17.3 201.07 -17.3 201.3 -11.89 204.42 -11.84 204.45 10.44 191.58 10.49 191.56 10.49 165.77 -11.79 152.91 -11.84 152.88 -17.3 156.03 -17.3 156.26"/>
        <path class="cls-27" d="M54.85,114.38l.05.03,22.28,12.86v25.78l-.05.03-22.28,12.86-.05-.03-22.28-12.86v-25.78l.05-.03,22.28-12.86ZM76.99,127.38l-22.13-12.78-22.14,12.78v25.56l22.14,12.78,22.13-12.78v-25.56Z"/>
        <path class="cls-38" d="M10.39,114.38l.05.03,22.28,12.86v25.78l-.05.03-22.28,12.86-.05-.03-22.28-12.86v-25.78l.05-.03,22.28-12.86ZM32.52,127.38l-22.13-12.78-22.13,12.78v25.56l22.13,12.78,22.13-12.78v-25.56Z"/>
        <path class="cls-39" d="M343.86,75.87l.05.03,22.28,12.86v25.78l-.05.03-22.28,12.86-.05-.03-22.28-12.86v-25.78l.05-.03,22.28-12.86ZM365.99,88.87l-22.13-12.78-22.13,12.78v25.56l22.13,12.78,22.13-12.78v-25.56Z"/>
        <path class="cls-40" d="M32.62,75.87l.05.03,22.28,12.86v25.78l-.05.03-22.28,12.86-.05-.03-22.28-12.86v-25.78l.05-.03,22.28-12.86ZM54.76,88.87l-22.14-12.78-22.13,12.78v25.56l22.13,12.78,22.14-12.78v-25.56Z"/>
        <polygon class="cls-41" points="-17.3 79.24 -11.84 76.09 10.29 88.87 10.29 114.43 -11.84 127.21 -17.3 124.06 -17.3 124.28 -11.89 127.41 -11.84 127.43 10.44 114.57 10.49 114.54 10.49 88.76 -11.79 75.9 -11.84 75.87 -17.3 79.02 -17.3 79.24"/>
        <path class="cls-26" d="M366.09,37.36l.05.03,22.28,12.86v25.78l-.05.03-22.28,12.86-.05-.03-22.28-12.86v-25.78l.05-.03,22.28-12.86ZM388.23,50.37l-22.13-12.78-22.14,12.78v25.56l22.14,12.78,22.13-12.78v-25.56Z"/>
        <path class="cls-29" d="M321.63,37.36l.05.03,22.28,12.86v25.78l-.05.03-22.28,12.86-.05-.03-22.28-12.86v-25.78l.05-.03,22.28-12.86ZM343.76,50.37l-22.13-12.78-22.13,12.78v25.56l22.13,12.78,22.13-12.78v-25.56Z"/>
        <path class="cls-28" d="M277.17,37.36l.05.03,22.28,12.86v25.78l-.05.03-22.28,12.86-.05-.03-22.28-12.86v-25.78l.05-.03,22.28-12.86ZM299.3,50.37l-22.13-12.78-22.14,12.78v25.56l22.14,12.78,22.13-12.78v-25.56Z"/>
        <path class="cls-30" d="M232.7,37.36l.05.03,22.28,12.86v25.78l-.05.03-22.28,12.86-.05-.03-22.28-12.86v-25.78l.05-.03,22.28-12.86ZM254.84,50.37l-22.14-12.78-22.13,12.78v25.56l22.13,12.78,22.14-12.78v-25.56Z"/>
        <path class="cls-31" d="M343.86-1.14l.05.03,22.28,12.86v25.78l-.05.03-22.28,12.86-.05-.03-22.28-12.86V11.75l.05-.03,22.28-12.86ZM365.99,11.86l-22.13-12.78-22.13,12.78v25.56l22.13,12.78,22.13-12.78V11.86Z"/>
        <path class="cls-47" d="M299.4-1.14l.05.03,22.28,12.86v25.78l-.05.03-22.28,12.86-.05-.03-22.28-12.86V11.75l.05-.03,22.28-12.86ZM321.53,11.86l-22.14-12.78-22.13,12.78v25.56l22.13,12.78,22.14-12.78V11.86Z"/>
        <path class="cls-33" d="M254.93-1.14l.05.03,22.28,12.86v25.78l-.05.03-22.28,12.86-.05-.03-22.28-12.86V11.75l.05-.03,22.28-12.86ZM277.07,11.86L254.93-.92l-22.13,12.78v25.56l22.13,12.78,22.13-12.78V11.86Z"/>
        <polygon class="cls-48" points="388.23 -15.53 388.23 -1.09 366.09 11.69 343.96 -1.09 343.96 -15.53 343.76 -15.53 343.76 -.97 366.04 11.89 366.09 11.92 388.37 -.95 388.42 -.97 388.42 -15.53 388.23 -15.53"/>
        <polygon class="cls-46" points="343.76 -15.53 343.76 -1.09 321.63 11.69 299.49 -1.09 299.49 -15.53 299.3 -15.53 299.3 -.97 321.58 11.89 321.63 11.92 343.91 -.95 343.96 -.97 343.96 -15.53 343.76 -15.53"/>
        <polygon class="cls-32" points="299.3 -15.53 299.3 -1.09 277.17 11.69 255.03 -1.09 255.03 -15.53 254.84 -15.53 254.84 -.97 277.12 11.89 277.17 11.92 299.45 -.95 299.49 -.97 299.49 -15.53 299.3 -15.53"/>
        <polygon class="cls-49" points="254.84 -15.53 254.84 -1.09 232.7 11.69 210.57 -1.09 210.57 -15.53 210.38 -15.53 210.38 -.97 232.66 11.89 232.7 11.92 254.98 -.95 255.03 -.97 255.03 -15.53 254.84 -15.53"/>
        <polygon class="cls-37" points="76.99 -15.53 76.99 -1.09 54.85 11.69 32.72 -1.09 32.72 -15.53 32.52 -15.53 32.52 -.97 54.8 11.89 54.85 11.92 77.13 -.95 77.18 -.97 77.18 -15.53 76.99 -15.53"/>
        <polygon class="cls-35" points="32.52 -15.53 32.52 -1.09 10.39 11.69 -11.75 -1.09 -11.75 -15.53 -11.94 -15.53 -11.94 -.97 10.34 11.89 10.39 11.92 32.67 -.95 32.72 -.97 32.72 -15.53 32.52 -15.53"/>
      </g>
      <g>
        <polygon class="cls-34" points="83.89 322.72 83.89 300.85 112.36 284.41 140.83 300.85 140.83 322.72 141.84 322.72 141.84 300.27 112.36 283.25 82.88 300.27 82.88 322.72 83.89 322.72"/>
        <polygon class="cls-36" points="25.94 322.72 25.94 300.85 54.41 284.41 82.88 300.85 82.88 322.72 83.89 322.72 83.89 300.27 54.41 283.25 24.94 300.27 24.94 322.72 25.94 322.72"/>
        <polygon class="cls-43" points="24.94 300.85 24.94 322.72 25.94 322.72 25.94 300.27 -3.53 283.25 -17.3 291.2 -17.3 292.36 -3.53 284.41 24.94 300.85"/>
        <path class="cls-42" d="M83.39,233.07l29.48,17.02v34.04l-29.48,17.02-29.48-17.02v-34.04l29.48-17.02ZM111.86,250.67l-28.47-16.44-28.47,16.44v32.88l28.47,16.44,28.47-16.44v-32.88Z"/>
        <path class="cls-44" d="M25.44,233.07l29.48,17.02v34.04l-29.48,17.02-29.48-17.02v-34.04l29.48-17.02ZM53.91,250.67l-28.47-16.44-28.47,16.44v32.88l28.47,16.44,28.47-16.44v-32.88Z"/>
        <path class="cls-50" d="M54.41,182.88l29.48,17.02v34.04l-29.48,17.02-29.48-17.02v-34.04l29.48-17.02ZM82.88,200.48l-28.47-16.44-28.47,16.44v32.88l28.47,16.44,28.47-16.44v-32.88Z"/>
        <polygon class="cls-45" points="-17.3 191.99 -3.53 184.04 24.94 200.48 24.94 233.36 -3.53 249.79 -17.3 241.85 -17.3 243.01 -3.53 250.96 25.94 233.94 25.94 199.9 -3.53 182.88 -17.3 190.83 -17.3 191.99"/>
        <path class="cls-51" d="M373.12,132.7l29.48,17.02v34.04l-29.48,17.02-29.48-17.02v-34.04l29.48-17.02ZM401.59,150.3l-28.47-16.44-28.47,16.44v32.88l28.47,16.44,28.47-16.44v-32.88Z"/>
        <path class="cls-13" d="M315.18,132.7l29.48,17.02v34.04l-29.48,17.02-29.48-17.02v-34.04l29.48-17.02ZM343.65,150.3l-28.47-16.44-28.47,16.44v32.88l28.47,16.44,28.47-16.44v-32.88Z"/>
        <polygon class="cls-14" points="402.1 150.59 416.15 142.48 416.15 141.32 402.1 149.43 373.63 132.99 373.63 100.11 402.1 83.68 416.15 91.79 416.15 90.63 402.1 82.52 372.62 99.53 372.62 133.57 402.1 150.59"/>
        <path class="cls-15" d="M344.15,82.52l29.48,17.02v34.04l-29.48,17.02-29.48-17.02v-34.04l29.48-17.02ZM372.62,100.11l-28.47-16.44-28.47,16.44v32.88l28.47,16.44,28.47-16.44v-32.88Z"/>
        <path class="cls-12" d="M286.2,82.52l29.48,17.02v34.04l-29.48,17.02-29.48-17.02v-34.04l29.48-17.02ZM314.67,100.11l-28.47-16.44-28.47,16.44v32.88l28.47,16.44,28.47-16.44v-32.88Z"/>
        <path class="cls-20" d="M373.12,32.33l29.48,17.02v34.04l-29.48,17.02-29.48-17.02v-34.04l29.48-17.02ZM401.59,49.93l-28.47-16.44-28.47,16.44v32.88l28.47,16.44,28.47-16.44v-32.88Z"/>
        <path class="cls-18" d="M315.18,32.33l29.48,17.02v34.04l-29.48,17.02-29.48-17.02v-34.04l29.48-17.02ZM343.65,49.93l-28.47-16.44-28.47,16.44v32.88l28.47,16.44,28.47-16.44v-32.88Z"/>
        <path class="cls-21" d="M25.44,32.33l29.48,17.02v34.04l-29.48,17.02-29.48-17.02v-34.04l29.48-17.02ZM53.91,49.93l-28.47-16.44L-3.03,49.93v32.88l28.47,16.44,28.47-16.44v-32.88Z"/>
        <polygon class="cls-19" points="402.1 50.22 416.15 42.11 416.15 40.95 402.1 49.06 373.63 32.62 373.63 -.25 400.08 -15.53 398.07 -15.53 372.62 -.83 372.62 33.2 402.1 50.22"/>
        <polygon class="cls-17" points="346.16 -15.53 372.62 -.25 372.62 32.62 344.15 49.06 315.68 32.62 315.68 -.25 342.14 -15.53 340.12 -15.53 314.67 -.83 314.67 33.2 344.15 50.22 373.63 33.2 373.63 -.83 348.17 -15.53 346.16 -15.53"/>
        <polygon class="cls-16" points="288.21 -15.53 314.67 -.25 314.67 32.62 286.2 49.06 257.73 32.62 257.73 -.25 284.19 -15.53 282.18 -15.53 256.72 -.83 256.72 33.2 286.2 50.22 315.68 33.2 315.68 -.83 290.23 -15.53 288.21 -15.53"/>
        <polygon class="cls-59" points="56.42 -15.53 82.88 -.25 82.88 32.62 54.41 49.06 25.94 32.62 25.94 -.25 52.4 -15.53 50.39 -15.53 24.94 -.83 24.94 33.2 54.41 50.22 83.89 33.2 83.89 -.83 58.44 -15.53 56.42 -15.53"/>
        <polygon class="cls-60" points="-3.53 49.06 -17.3 41.11 -17.3 42.27 -3.53 50.22 25.94 33.2 25.94 -.83 .49 -15.53 -1.52 -15.53 24.94 -.25 24.94 32.62 -3.53 49.06"/>
        <polygon class="cls-61" points="398.07 -15.53 373.12 -1.12 348.17 -15.53 346.16 -15.53 373.12 .04 400.08 -15.53 398.07 -15.53"/>
        <polygon class="cls-55" points="340.12 -15.53 315.18 -1.12 290.23 -15.53 288.21 -15.53 315.18 .04 342.14 -15.53 340.12 -15.53"/>
        <polygon class="cls-56" points="282.18 -15.53 257.23 -1.12 232.28 -15.53 230.27 -15.53 257.23 .04 284.19 -15.53 282.18 -15.53"/>
        <polygon class="cls-57" points="224.23 -15.53 199.28 -1.12 174.33 -15.53 172.32 -15.53 199.28 .04 226.24 -15.53 224.23 -15.53"/>
        <polygon class="cls-58" points="166.28 -15.53 141.33 -1.12 116.38 -15.53 114.37 -15.53 141.33 .04 168.3 -15.53 166.28 -15.53"/>
        <polygon class="cls-52" points="108.34 -15.53 83.39 -1.12 58.44 -15.53 56.42 -15.53 83.39 .04 110.35 -15.53 108.34 -15.53"/>
        <polygon class="cls-53" points="50.39 -15.53 25.44 -1.12 .49 -15.53 -1.52 -15.53 25.44 .04 52.4 -15.53 50.39 -15.53"/>
      </g>
      <g>
        <path class="cls-54" d="M343.86,228.41c-.88,0-1.6.72-1.6,1.6s.72,1.6,1.6,1.6,1.6-.72,1.6-1.6-.72-1.6-1.6-1.6Z"/>
        <path class="cls-69" d="M210.47,281.08c-.15,0-.27.12-.27.27s.12.27.27.27.27-.12.27-.27-.12-.27-.27-.27Z"/>
        <path class="cls-70" d="M188.24,271.58c1.69,0,3.07-1.37,3.07-3.07s-1.37-3.07-3.07-3.07-3.07,1.37-3.07,3.07,1.37,3.07,3.07,3.07Z"/>
        <path class="cls-71" d="M188.24,240.92c-1.06,0-1.92.86-1.92,1.92s.86,1.92,1.92,1.92,1.92-.86,1.92-1.92-.86-1.92-1.92-1.92Z"/>
        <path class="cls-65" d="M166.01,228.28c-.95,0-1.73.77-1.73,1.73s.77,1.73,1.73,1.73,1.73-.77,1.73-1.73-.77-1.73-1.73-1.73Z"/>
        <circle class="cls-66" cx="166.01" cy="281.35" r=".89"/>
        <path class="cls-67" d="M143.78,266.75c-.97,0-1.76.79-1.76,1.76s.79,1.76,1.76,1.76,1.76-.79,1.76-1.76-.79-1.76-1.76-1.76Z"/>
        <path class="cls-68" d="M143.78,245.93c1.71,0,3.09-1.38,3.09-3.09s-1.38-3.09-3.09-3.09-3.09,1.38-3.09,3.09,1.38,3.09,3.09,3.09Z"/>
        <path class="cls-62" d="M121.55,280.05c-.72,0-1.3.58-1.3,1.3s.58,1.3,1.3,1.3,1.3-.58,1.3-1.3-.58-1.3-1.3-1.3Z"/>
        <path class="cls-63" d="M99.31,266.11c-1.32,0-2.4,1.07-2.4,2.4s1.07,2.4,2.4,2.4,2.4-1.07,2.4-2.4-1.07-2.4-2.4-2.4Z"/>
        <circle class="cls-64" cx="99.31" cy="242.84" r="2.86"/>
        <path class="cls-81" d="M77.08,279.85c-.83,0-1.5.67-1.5,1.5s.67,1.5,1.5,1.5,1.5-.67,1.5-1.5-.67-1.5-1.5-1.5Z"/>
        <path class="cls-79" d="M54.85,266.79c-.95,0-1.72.77-1.72,1.72s.77,1.72,1.72,1.72,1.72-.77,1.72-1.72-.77-1.72-1.72-1.72Z"/>
        <circle class="cls-75" cx="54.85" cy="242.84" r="1.23"/>
        <path class="cls-80" d="M32.62,280.19c-.64,0-1.16.52-1.16,1.16s.52,1.16,1.16,1.16,1.16-.52,1.16-1.16-.52-1.16-1.16-1.16Z"/>
        <path class="cls-77" d="M10.39,266.69c-1.01,0-1.82.82-1.82,1.82s.82,1.82,1.82,1.82,1.82-.82,1.82-1.82-.82-1.82-1.82-1.82Z"/>
        <circle class="cls-74" cx="10.39" cy="242.84" r="2.07"/>
        <path class="cls-78" d="M366.09,193.54c1.13,0,2.04-.92,2.04-2.04s-.92-2.04-2.04-2.04-2.05.92-2.05,2.04.92,2.04,2.05,2.04Z"/>
        <circle class="cls-76" cx="388.32" cy="204.34" r="1.29"/>
        <path class="cls-73" d="M388.32,229.03c-.54,0-.98.44-.98.98s.44.98.98.98.98-.44.98-.98-.44-.98-.98-.98Z"/>
        <circle class="cls-72" cx="366.09" cy="242.84" r="2.99"/>
        <path class="cls-91" d="M343.86,201.82c-1.39,0-2.51,1.13-2.51,2.51s1.13,2.51,2.51,2.51,2.51-1.13,2.51-2.51-1.13-2.51-2.51-2.51Z"/>
        <path class="cls-90" d="M166.01,202.02c-1.28,0-2.32,1.04-2.32,2.32s1.04,2.32,2.32,2.32,2.32-1.04,2.32-2.32-1.04-2.32-2.32-2.32Z"/>
        <path class="cls-87" d="M121.55,231.19c.65,0,1.19-.53,1.19-1.19s-.53-1.19-1.19-1.19-1.19.53-1.19,1.19.53,1.19,1.19,1.19Z"/>
        <path class="cls-86" d="M121.55,202.14c-1.21,0-2.2.98-2.2,2.2s.98,2.2,2.2,2.2,2.2-.98,2.2-2.2-.98-2.2-2.2-2.2Z"/>
        <circle class="cls-88" cx="99.31" cy="191.5" r="1.39"/>
        <path class="cls-85" d="M77.08,233.25c1.79,0,3.25-1.45,3.25-3.25s-1.45-3.25-3.25-3.25-3.25,1.45-3.25,3.25,1.45,3.25,3.25,3.25Z"/>
        <path class="cls-89" d="M32.62,227.6c-1.33,0-2.41,1.08-2.41,2.41s1.08,2.41,2.41,2.41,2.41-1.08,2.41-2.41-1.08-2.41-2.41-2.41Z"/>
        <path class="cls-82" d="M10.39,189.1c-1.33,0-2.4,1.08-2.4,2.4s1.08,2.4,2.4,2.4,2.4-1.08,2.4-2.4-1.08-2.4-2.4-2.4Z"/>
        <path class="cls-83" d="M32.62,201.5c-1.56,0-2.83,1.27-2.83,2.83s1.27,2.83,2.83,2.83,2.83-1.27,2.83-2.83-1.27-2.83-2.83-2.83Z"/>
        <path class="cls-84" d="M141.93,191.5c0,1.02.83,1.85,1.85,1.85s1.85-.83,1.85-1.85-.83-1.85-1.85-1.85-1.85.83-1.85,1.85Z"/>
        <circle class="cls-101" cx="77.08" cy="204.34" r="1.49"/>
        <path class="cls-99" d="M54.85,189.9c-.88,0-1.6.71-1.6,1.6s.71,1.6,1.6,1.6,1.6-.71,1.6-1.6-.71-1.6-1.6-1.6Z"/>
        <path class="cls-96" d="M10.39,167.89c1.14,0,2.06-.92,2.06-2.06s-.92-2.06-2.06-2.06-2.06.92-2.06,2.06.92,2.06,2.06,2.06Z"/>
        <path class="cls-97" d="M366.09,116.83c1.29,0,2.34-1.05,2.34-2.34s-1.05-2.34-2.34-2.34-2.34,1.05-2.34,2.34,1.05,2.34,2.34,2.34Z"/>
        <circle class="cls-98" cx="388.32" cy="127.32" r=".21"/>
        <circle class="cls-100" cx="388.32" cy="152.99" r="1.87"/>
        <path class="cls-93" d="M366.09,167.44c.89,0,1.61-.72,1.61-1.61s-.72-1.61-1.61-1.61-1.61.72-1.61,1.61.72,1.61,1.61,1.61Z"/>
        <path class="cls-94" d="M323.08,114.49c0-.8-.65-1.46-1.46-1.46s-1.46.65-1.46,1.46.65,1.46,1.46,1.46,1.46-.65,1.46-1.46Z"/>
        <path class="cls-95" d="M99.31,168.21c1.31,0,2.38-1.06,2.38-2.38s-1.06-2.38-2.38-2.38-2.38,1.06-2.38,2.38,1.06,2.38,2.38,2.38Z"/>
        <path class="cls-92" d="M79.55,152.99c0-1.36-1.1-2.47-2.47-2.47s-2.47,1.1-2.47,2.47,1.1,2.47,2.47,2.47,2.47-1.1,2.47-2.47Z"/>
        <circle class="cls-153" cx="54.85" cy="114.49" r="1.49"/>
        <circle class="cls-152" cx="77.08" cy="127.32" r="1.94"/>
        <circle class="cls-151" cx="54.85" cy="165.83" r="2.07"/>
        <circle class="cls-150" cx="32.62" cy="127.32" r="2.94"/>
        <path class="cls-149" d="M10.39,112.83c-.92,0-1.66.74-1.66,1.66s.74,1.66,1.66,1.66,1.66-.74,1.66-1.66-.74-1.66-1.66-1.66Z"/>
        <path class="cls-147" d="M32.62,150.08c-1.61,0-2.91,1.3-2.91,2.91s1.3,2.91,2.91,2.91,2.91-1.3,2.91-2.91-1.3-2.91-2.91-2.91Z"/>
        <path class="cls-148" d="M343.86,124.49c-1.57,0-2.84,1.27-2.84,2.83s1.27,2.83,2.84,2.83,2.83-1.27,2.83-2.83-1.27-2.83-2.83-2.83Z"/>
        <path class="cls-144" d="M321.63,86.41c-1.33,0-2.41,1.08-2.41,2.41s1.08,2.41,2.41,2.41,2.41-1.08,2.41-2.41-1.08-2.41-2.41-2.41Z"/>
        <path class="cls-145" d="M276.02,88.82c0,.63.51,1.14,1.14,1.14s1.14-.51,1.14-1.14-.51-1.14-1.14-1.14-1.14.51-1.14,1.14Z"/>
        <path class="cls-146" d="M254.93,73.77c-1.22,0-2.21.99-2.21,2.21s.99,2.21,2.21,2.21,2.21-.99,2.21-2.21-.99-2.21-2.21-2.21Z"/>
        <path class="cls-222" d="M230.57,88.82c0,1.18.96,2.14,2.14,2.14s2.14-.96,2.14-2.14-.96-2.14-2.14-2.14-2.14.96-2.14,2.14Z"/>
        <path class="cls-227" d="M210.47,73.48c-1.38,0-2.5,1.12-2.5,2.5s1.12,2.5,2.5,2.5,2.5-1.12,2.5-2.5-1.12-2.5-2.5-2.5Z"/>
        <circle class="cls-226" cx="366.09" cy="37.48" r="1.44"/>
        <circle class="cls-224" cx="388.32" cy="50.31" r="1.15"/>
        <path class="cls-223" d="M388.87,75.98c0-.3-.24-.55-.55-.55s-.55.24-.55.55.24.55.55.55.55-.24.55-.55Z"/>
        <circle class="cls-221" cx="366.09" cy="88.82" r="2.26"/>
        <path class="cls-219" d="M345.72,50.31c0-1.03-.83-1.86-1.86-1.86s-1.86.83-1.86,1.86.83,1.86,1.86,1.86,1.86-.83,1.86-1.86Z"/>
        <path class="cls-220" d="M342.58,75.98c0,.71.57,1.28,1.28,1.28s1.28-.57,1.28-1.28-.57-1.28-1.28-1.28-1.28.57-1.28,1.28Z"/>
        <path class="cls-225" d="M299.4,77.03c.58,0,1.05-.47,1.05-1.05s-.47-1.05-1.05-1.05-1.05.47-1.05,1.05.47,1.05,1.05,1.05Z"/>
        <path class="cls-241" d="M278.93,37.48c0-.97-.79-1.76-1.76-1.76s-1.76.79-1.76,1.76.79,1.76,1.76,1.76,1.76-.79,1.76-1.76Z"/>
        <path class="cls-161" d="M299.4,52.85c1.4,0,2.54-1.14,2.54-2.54s-1.14-2.54-2.54-2.54-2.54,1.14-2.54,2.54,1.14,2.54,2.54,2.54Z"/>
        <path class="cls-160" d="M210.47,47.57c-1.51,0-2.74,1.23-2.74,2.74s1.23,2.74,2.74,2.74,2.74-1.23,2.74-2.74-1.23-2.74-2.74-2.74Z"/>
        <path class="cls-158" d="M54.85,38.85c.76,0,1.37-.61,1.37-1.37s-.61-1.37-1.37-1.37-1.37.61-1.37,1.37.61,1.37,1.37,1.37Z"/>
        <path class="cls-156" d="M54.85,87.22c-.88,0-1.6.72-1.6,1.6s.72,1.6,1.6,1.6,1.6-.72,1.6-1.6-.72-1.6-1.6-1.6Z"/>
        <path class="cls-154" d="M32.62,79.11c1.73,0,3.13-1.4,3.13-3.13s-1.4-3.13-3.13-3.13-3.13,1.4-3.13,3.13,1.4,3.13,3.13,3.13Z"/>
        <path class="cls-155" d="M10.39,87.12c-.94,0-1.7.76-1.7,1.7s.76,1.7,1.7,1.7,1.7-.76,1.7-1.7-.76-1.7-1.7-1.7Z"/>
        <path class="cls-159" d="M323.31,37.48c0-.93-.75-1.69-1.69-1.69s-1.68.75-1.68,1.69.75,1.69,1.68,1.69,1.69-.75,1.69-1.69Z"/>
        <path class="cls-240" d="M321.63,9.05c-1.52,0-2.76,1.23-2.76,2.76s1.23,2.76,2.76,2.76,2.76-1.23,2.76-2.76-1.23-2.76-2.76-2.76Z"/>
        <circle class="cls-239" cx="254.93" cy="50.31" r="2.88"/>
        <circle class="cls-157" cx="232.7" cy="37.48" r="1.06"/>
        <path class="cls-237" d="M210.47-3.15c-1.17,0-2.12.95-2.12,2.12s.95,2.12,2.12,2.12,2.12-.95,2.12-2.12-.95-2.12-2.12-2.12Z"/>
        <circle class="cls-236" cx="232.7" cy="11.81" r="3.25"/>
        <path class="cls-235" d="M53.01,11.81c0,1.02.83,1.84,1.85,1.84s1.84-.83,1.84-1.84-.83-1.85-1.84-1.85-1.85.83-1.85,1.85Z"/>
        <path class="cls-228" d="M10.39,35.07c-1.33,0-2.4,1.08-2.4,2.4s1.08,2.4,2.4,2.4,2.4-1.08,2.4-2.4-1.08-2.4-2.4-2.4Z"/>
        <path class="cls-233" d="M10.39,14.21c1.33,0,2.4-1.07,2.4-2.4s-1.07-2.4-2.4-2.4-2.4,1.07-2.4,2.4,1.07,2.4,2.4,2.4Z"/>
        <path class="cls-232" d="M366.09,13.19c.77,0,1.39-.62,1.39-1.39s-.62-1.39-1.39-1.39-1.39.62-1.39,1.39.62,1.39,1.39,1.39Z"/>
        <path class="cls-231" d="M343.86,2.51c1.95,0,3.54-1.58,3.54-3.54s-1.58-3.54-3.54-3.54-3.54,1.58-3.54,3.54,1.58,3.54,3.54,3.54Z"/>
        <path class="cls-234" d="M299.4,1.11c1.18,0,2.14-.96,2.14-2.14s-.96-2.14-2.14-2.14-2.14.96-2.14,2.14.96,2.14,2.14,2.14Z"/>
        <path class="cls-230" d="M277.17,9.37c-1.34,0-2.43,1.09-2.43,2.43s1.09,2.43,2.43,2.43,2.43-1.09,2.43-2.43-1.09-2.43-2.43-2.43Z"/>
        <path class="cls-229" d="M252.15-1.03c0,1.54,1.25,2.78,2.78,2.78s2.78-1.25,2.78-2.78-1.25-2.78-2.78-2.78-2.78,1.25-2.78,2.78Z"/>
        <path class="cls-139" d="M77.08-2.94c-1.05,0-1.91.86-1.91,1.91s.86,1.91,1.91,1.91,1.91-.86,1.91-1.91-.85-1.91-1.91-1.91Z"/>
        <path class="cls-138" d="M32.62-3.14c-1.17,0-2.11.95-2.11,2.11s.95,2.11,2.11,2.11,2.11-.95,2.11-2.11-.95-2.11-2.11-2.11Z"/>
      </g>
    </g>
    <g class="cls-103">
      <g>
        <g>
          <polygon class="cls-143" points="141.11 322.72 141.11 295.56 168.13 279.96 195.15 295.56 195.15 322.72 195.38 322.72 195.38 295.42 168.19 279.72 168.13 279.69 140.94 295.39 140.88 295.42 140.88 322.72 141.11 322.72"/>
          <polygon class="cls-142" points="86.84 322.72 86.84 295.56 113.86 279.96 140.88 295.56 140.88 322.72 141.11 322.72 141.11 295.42 113.92 279.72 113.86 279.69 86.67 295.39 86.61 295.42 86.61 322.72 86.84 322.72"/>
          <polygon class="cls-125" points="32.57 322.72 32.57 295.56 59.59 279.96 86.61 295.56 86.61 322.72 86.84 322.72 86.84 295.42 59.65 279.72 59.59 279.69 32.4 295.39 32.34 295.42 32.34 322.72 32.57 322.72"/>
          <polygon class="cls-124" points="32.34 295.56 32.34 322.72 32.57 322.72 32.57 295.42 5.38 279.72 5.32 279.69 -11.85 289.61 -11.85 289.88 5.32 279.96 32.34 295.56"/>
          <path class="cls-141" d="M86.73,232.69l.06.03,27.19,15.7v31.47l-.06.03-27.19,15.7-.06-.03-27.19-15.7v-31.47l.06-.03,27.19-15.7ZM113.74,248.56l-27.02-15.6-27.02,15.6v31.2l27.02,15.6,27.02-15.6v-31.2Z"/>
          <path class="cls-140" d="M32.46,232.69l.06.03,27.19,15.7v31.47l-.06.03-27.19,15.7-.06-.03-27.19-15.7v-31.47l.06-.03,27.19-15.7ZM59.47,248.56l-27.02-15.6-27.02,15.6v31.2l27.02,15.6,27.02-15.6v-31.2Z"/>
          <polygon class="cls-126" points="-11.85 238.71 5.21 248.56 5.21 279.76 -11.85 289.61 -11.85 289.88 5.38 279.93 5.44 279.89 5.44 248.43 -11.85 238.44 -11.85 238.71"/>
          <path class="cls-134" d="M59.59,185.69l.06.03,27.19,15.7v31.47l-.06.03-27.19,15.7-.06-.03-27.19-15.7v-31.47l.06-.03,27.19-15.7ZM86.61,201.56l-27.02-15.6-27.02,15.6v31.2l27.02,15.6,27.02-15.6v-31.2Z"/>
          <polygon class="cls-127" points="-11.85 195.88 5.32 185.97 32.34 201.56 32.34 232.76 5.32 248.36 -11.85 238.44 -11.85 238.71 5.26 248.6 5.32 248.63 32.52 232.93 32.57 232.9 32.57 201.43 5.38 185.73 5.32 185.69 -11.85 195.61 -11.85 195.88"/>
          <polygon class="cls-132" points="412.28 201.6 412.34 201.63 416.15 199.43 416.15 199.16 412.34 201.36 385.32 185.76 385.32 154.57 412.34 138.97 416.15 141.17 416.15 140.89 412.4 138.73 412.34 138.7 385.15 154.4 385.09 154.43 385.09 185.9 412.28 201.6"/>
          <path class="cls-129" d="M32.46,138.7l.06.03,27.19,15.7v31.47l-.06.03-27.19,15.7-.06-.03-27.19-15.7v-31.47l.06-.03,27.19-15.7ZM59.47,154.57l-27.02-15.6-27.02,15.6v31.2l27.02,15.6,27.02-15.6v-31.2Z"/>
          <polygon class="cls-131" points="-11.85 144.72 5.21 154.57 5.21 185.76 -11.85 195.61 -11.85 195.88 5.38 185.93 5.44 185.9 5.44 154.43 -11.85 144.44 -11.85 144.72"/>
          <path class="cls-130" d="M385.2,91.7l.06.03,27.19,15.7v31.47l-.06.03-27.19,15.7-.06-.03-27.19-15.7v-31.47l.06-.03,27.19-15.7ZM412.22,107.57l-27.02-15.6-27.02,15.6v31.2l27.02,15.6,27.02-15.6v-31.2Z"/>
          <path class="cls-109" d="M330.94,91.7l.06.03,27.19,15.7v31.47l-.06.03-27.19,15.7-.06-.03-27.19-15.7v-31.47l.06-.03,27.19-15.7ZM357.95,107.57l-27.02-15.6-27.02,15.6v31.2l27.02,15.6,27.02-15.6v-31.2Z"/>
          <path class="cls-128" d="M276.67,91.7l.06.03,27.19,15.7v31.47l-.06.03-27.19,15.7-.06-.03-27.19-15.7v-31.47l.06-.03,27.19-15.7ZM303.68,107.57l-27.02-15.6-27.02,15.6v31.2l27.02,15.6,27.02-15.6v-31.2Z"/>
          <polygon class="cls-133" points="412.28 107.6 412.34 107.64 416.15 105.44 416.15 105.17 412.34 107.36 385.32 91.77 385.32 60.57 412.34 44.97 416.15 47.17 416.15 46.9 412.4 44.73 412.34 44.7 385.15 60.4 385.09 60.43 385.09 91.9 412.28 107.6"/>
          <path class="cls-108" d="M358.07,44.7l.06.03,27.19,15.7v31.47l-.06.03-27.19,15.7-.06-.03-27.19-15.7v-31.47l.06-.03,27.19-15.7ZM385.09,60.57l-27.02-15.6-27.02,15.6v31.2l27.02,15.6,27.02-15.6v-31.2Z"/>
          <path class="cls-104" d="M303.8,44.7l.06.03,27.19,15.7v31.47l-.06.03-27.19,15.7-.06-.03-27.19-15.7v-31.47l.06-.03,27.19-15.7ZM330.82,60.57l-27.02-15.6-27.02,15.6v31.2l27.02,15.6,27.02-15.6v-31.2Z"/>
          <path class="cls-105" d="M385.2-2.3l.06.03,27.19,15.7v31.47l-.06.03-27.19,15.7-.06-.03-27.19-15.7V13.44l.06-.03,27.19-15.7ZM412.22,13.57l-27.02-15.6-27.02,15.6v31.2l27.02,15.6,27.02-15.6V13.57Z"/>
          <path class="cls-107" d="M330.94-2.3l.06.03,27.19,15.7v31.47l-.06.03-27.19,15.7-.06-.03-27.19-15.7V13.44l.06-.03,27.19-15.7ZM357.95,13.57l-27.02-15.6-27.02,15.6v31.2l27.02,15.6,27.02-15.6V13.57Z"/>
          <path class="cls-112" d="M276.67-2.3l.06.03,27.19,15.7v31.47l-.06.03-27.19,15.7-.06-.03-27.19-15.7V13.44l.06-.03,27.19-15.7ZM303.68,13.57l-27.02-15.6-27.02,15.6v31.2l27.02,15.6,27.02-15.6V13.57Z"/>
          <path class="cls-106" d="M59.59-2.3l.06.03,27.19,15.7v31.47l-.06.03-27.19,15.7-.06-.03-27.19-15.7V13.44l.06-.03L59.59-2.3ZM86.61,13.57L59.59-2.03l-27.02,15.6v31.2l27.02,15.6,27.02-15.6V13.57Z"/>
          <polygon class="cls-110" points="-11.85 7.89 5.32 -2.03 32.34 13.57 32.34 44.77 5.32 60.37 -11.85 50.45 -11.85 50.72 5.26 60.6 5.32 60.64 32.52 44.94 32.57 44.9 32.57 13.44 5.38 -2.26 5.32 -2.3 -11.85 7.62 -11.85 7.89"/>
          <polygon class="cls-113" points="412.28 13.61 412.34 13.64 416.15 11.44 416.15 11.17 412.34 13.37 385.32 -2.23 385.32 -11.28 385.09 -11.28 385.09 -2.09 412.28 13.61"/>
          <polygon class="cls-136" points="385.09 -11.28 385.09 -2.23 358.07 13.37 331.05 -2.23 331.05 -11.28 330.82 -11.28 330.82 -2.09 358.01 13.61 358.07 13.64 385.26 -2.06 385.32 -2.09 385.32 -11.28 385.09 -11.28"/>
          <polygon class="cls-111" points="330.82 -11.28 330.82 -2.23 303.8 13.37 276.78 -2.23 276.78 -11.28 276.55 -11.28 276.55 -2.09 303.74 13.61 303.8 13.64 330.99 -2.06 331.05 -2.09 331.05 -11.28 330.82 -11.28"/>
          <polygon class="cls-135" points="276.55 -11.28 276.55 -2.23 249.53 13.37 222.52 -2.23 222.52 -11.28 222.28 -11.28 222.28 -2.09 249.47 13.61 249.53 13.64 276.73 -2.06 276.78 -2.09 276.78 -11.28 276.55 -11.28"/>
          <polygon class="cls-137" points="59.47 -11.28 59.47 -2.23 32.46 13.37 5.44 -2.23 5.44 -11.28 5.21 -11.28 5.21 -2.09 32.4 13.61 32.46 13.64 59.65 -2.06 59.71 -2.09 59.71 -11.28 59.47 -11.28"/>
          <polygon class="cls-119" points="-11.85 7.89 5.38 -2.06 5.44 -2.09 5.44 -11.28 5.21 -11.28 5.21 -2.23 -11.85 7.62 -11.85 7.89"/>
        </g>
        <g>
          <polygon class="cls-118" points="24.31 322.72 24.31 290.79 59.06 270.73 93.8 290.79 93.8 322.72 95.03 322.72 95.03 290.08 59.06 269.31 23.08 290.08 23.08 322.72 24.31 322.72"/>
          <polygon class="cls-117" points="23.08 290.79 23.08 322.72 24.31 322.72 24.31 290.08 -11.67 269.31 -11.85 269.42 -11.85 270.83 -11.67 270.73 23.08 290.79"/>
          <path class="cls-116" d="M377.33,208.06l35.98,20.77v41.54l-35.98,20.77-35.98-20.77v-41.54l35.98-20.77ZM412.08,229.54l-34.75-20.06-34.75,20.06v40.13l34.75,20.06,34.75-20.06v-40.13Z"/>
          <polygon class="cls-115" points="412.69 229.89 416.15 227.9 416.15 226.48 412.69 228.48 377.94 208.41 377.94 168.29 412.69 148.22 416.15 150.22 416.15 148.8 412.69 146.81 376.71 167.58 376.71 209.12 412.69 229.89"/>
          <path class="cls-114" d="M341.96,146.81l35.98,20.77v41.54l-35.98,20.77-35.98-20.77v-41.54l35.98-20.77ZM376.71,168.29l-34.75-20.06-34.75,20.06v40.13l34.75,20.06,34.75-20.06v-40.13Z"/>
          <path class="cls-123" d="M377.33,85.56l35.98,20.77v41.54l-35.98,20.77-35.98-20.77v-41.54l35.98-20.77ZM412.08,107.04l-34.75-20.06-34.75,20.06v40.13l34.75,20.06,34.75-20.06v-40.13Z"/>
          <path class="cls-122" d="M-11.85,148.12l35.55,20.52,35.98-20.77v-41.54l-35.98-20.77-35.55,20.52v42.04ZM23.69,86.97l34.75,20.06v40.13l-34.75,20.06-34.75-20.06v-40.13l34.75-20.06Z"/>
          <polygon class="cls-121" points="412.69 107.39 416.15 105.4 416.15 103.98 412.69 105.97 377.94 85.91 377.94 45.78 412.69 25.72 416.15 27.72 416.15 26.3 412.69 24.3 376.71 45.08 376.71 86.62 412.69 107.39"/>
          <path class="cls-120" d="M341.96,24.3l35.98,20.77v41.54l-35.98,20.77-35.98-20.77v-41.54l35.98-20.77ZM376.71,45.78l-34.75-20.06-34.75,20.06v40.13l34.75,20.06,34.75-20.06v-40.13Z"/>
          <path class="cls-218" d="M59.06,24.3l35.98,20.77v41.54l-35.98,20.77-35.98-20.77v-41.54l35.98-20.77ZM93.8,45.78l-34.75-20.06-34.75,20.06v40.13l34.75,20.06,34.75-20.06v-40.13Z"/>
          <polygon class="cls-213" points="-11.85 25.83 -11.67 25.72 23.08 45.78 23.08 85.91 -11.67 105.97 -11.85 105.87 -11.85 107.28 -11.67 107.39 24.31 86.62 24.31 45.08 -11.67 24.3 -11.85 24.41 -11.85 25.83"/>
          <polygon class="cls-217" points="412.08 -11.28 412.08 24.66 377.33 44.72 342.58 24.66 342.58 -11.28 341.35 -11.28 341.35 25.37 377.33 46.14 413.31 25.37 413.31 -11.28 412.08 -11.28"/>
          <polygon class="cls-216" points="341.35 -11.28 341.35 24.66 306.6 44.72 271.85 24.66 271.85 -11.28 270.62 -11.28 270.62 25.37 306.6 46.14 342.58 25.37 342.58 -11.28 341.35 -11.28"/>
          <polygon class="cls-215" points="270.62 -11.28 270.62 24.66 235.87 44.72 201.12 24.66 201.12 -11.28 199.9 -11.28 199.9 25.37 235.87 46.14 271.85 25.37 271.85 -11.28 270.62 -11.28"/>
          <polygon class="cls-214" points="199.9 -11.28 199.9 24.66 165.15 44.72 130.4 24.66 130.4 -11.28 129.17 -11.28 129.17 25.37 165.15 46.14 201.12 25.37 201.12 -11.28 199.9 -11.28"/>
          <polygon class="cls-212" points="129.17 -11.28 129.17 24.66 94.42 44.72 59.67 24.66 59.67 -11.28 58.44 -11.28 58.44 25.37 94.42 46.14 130.4 25.37 130.4 -11.28 129.17 -11.28"/>
          <polygon class="cls-210" points="-11.85 -11.28 -11.85 25.62 23.69 46.14 59.67 25.37 59.67 -11.28 58.44 -11.28 58.44 24.66 23.69 44.72 -11.06 24.66 -11.06 -11.28 -11.85 -11.28"/>
        </g>
        <g>
          <circle class="cls-211" cx="113.86" cy="279.83" r="1.69"/>
          <path class="cls-209" d="M5.32,276.9c-1.62,0-2.93,1.31-2.93,2.93s1.31,2.93,2.93,2.93,2.93-1.31,2.93-2.93-1.31-2.93-2.93-2.93Z"/>
          <path class="cls-200" d="M165.88,279.83c0,1.24,1.01,2.25,2.25,2.25s2.25-1.01,2.25-2.25-1.01-2.25-2.25-2.25-2.25,1.01-2.25,2.25Z"/>
          <circle class="cls-206" cx="59.59" cy="279.83" r="1.95"/>
          <path class="cls-203" d="M5.32,251.01c1.39,0,2.51-1.12,2.51-2.51s-1.12-2.51-2.51-2.51-2.51,1.12-2.51,2.51,1.12,2.51,2.51,2.51Z"/>
          <path class="cls-205" d="M386.98,185.83c0-.98-.8-1.78-1.78-1.78s-1.78.8-1.78,1.78.8,1.78,1.78,1.78,1.78-.8,1.78-1.78Z"/>
          <circle class="cls-208" cx="113.86" cy="248.49" r="2.9"/>
          <path class="cls-207" d="M89.74,232.83c0-1.66-1.35-3.01-3.01-3.01s-3.01,1.35-3.01,3.01,1.35,3.01,3.01,3.01,3.01-1.35,3.01-3.01Z"/>
          <circle class="cls-201" cx="59.59" cy="185.83" r="1.82"/>
          <path class="cls-202" d="M86.73,203.87c1.31,0,2.37-1.06,2.37-2.37s-1.06-2.37-2.37-2.37-2.37,1.06-2.37,2.37,1.06,2.37,2.37,2.37Z"/>
          <circle class="cls-204" cx="59.59" cy="248.49" r="2.53"/>
          <circle class="cls-238" cx="32.46" cy="201.5" r="3.59"/>
          <path class="cls-199" d="M5.32,183.8c-1.12,0-2.03.91-2.03,2.03s.91,2.03,2.03,2.03,2.03-.91,2.03-2.03-.91-2.03-2.03-2.03Z"/>
          <path class="cls-197" d="M32.46,229.27c-1.96,0-3.55,1.59-3.55,3.55s1.59,3.55,3.55,3.55,3.55-1.59,3.55-3.55-1.59-3.55-3.55-3.55Z"/>
          <path class="cls-198" d="M385.2,151.56c-1.62,0-2.94,1.32-2.94,2.94s1.32,2.94,2.94,2.94,2.94-1.32,2.94-2.94-1.32-2.94-2.94-2.94Z"/>
          <path class="cls-195" d="M329.54,154.5c0,.77.63,1.4,1.4,1.4s1.4-.63,1.4-1.4-.63-1.4-1.4-1.4-1.4.63-1.4,1.4Z"/>
          <circle class="cls-196" cx="303.8" cy="138.83" r="2.7"/>
          <path class="cls-194" d="M274.06,154.5c0,1.44,1.17,2.61,2.61,2.61s2.61-1.17,2.61-2.61-1.17-2.61-2.61-2.61-2.61,1.17-2.61,2.61Z"/>
          <circle class="cls-193" cx="249.53" cy="138.83" r="3.05"/>
          <circle class="cls-192" cx="358.07" cy="138.83" r="1.28"/>
          <path class="cls-191" d="M333.08,91.83c0-1.19-.96-2.15-2.15-2.15s-2.15.96-2.15,2.15.96,2.15,2.15,2.15,2.15-.96,2.15-2.15Z"/>
          <path class="cls-170" d="M358.07,110.6c1.71,0,3.1-1.39,3.1-3.1s-1.39-3.1-3.1-3.1-3.1,1.39-3.1,3.1,1.39,3.1,3.1,3.1Z"/>
          <circle class="cls-186" cx="249.53" cy="107.5" r="3.34"/>
          <path class="cls-187" d="M59.59,93.51c.92,0,1.67-.75,1.67-1.67s-.75-1.67-1.67-1.67-1.67.75-1.67,1.67.75,1.67,1.67,1.67Z"/>
          <circle class="cls-182" cx="59.59" cy="154.5" r="1.95"/>
          <circle class="cls-190" cx="32.46" cy="138.83" r="3.82"/>
          <path class="cls-189" d="M5.32,152.42c-1.15,0-2.07.93-2.07,2.07s.93,2.07,2.07,2.07,2.07-.93,2.07-2.07-.93-2.07-2.07-2.07Z"/>
          <circle class="cls-181" cx="385.2" cy="91.83" r="2.06"/>
          <path class="cls-185" d="M385.2,57.14c-1.86,0-3.37,1.51-3.37,3.37s1.51,3.37,3.37,3.37,3.37-1.51,3.37-3.37-1.51-3.37-3.37-3.37Z"/>
          <circle class="cls-188" cx="303.8" cy="107.5" r="3.52"/>
          <path class="cls-183" d="M277.96,91.83c0-.71-.58-1.29-1.29-1.29s-1.29.58-1.29,1.29.58,1.29,1.29,1.29,1.29-.58,1.29-1.29Z"/>
          <circle class="cls-184" cx="249.53" cy="44.84" r="2.59"/>
          <path class="cls-175" d="M276.67,64.47c2.19,0,3.96-1.78,3.96-3.96s-1.78-3.96-3.96-3.96-3.96,1.78-3.96,3.96,1.78,3.96,3.96,3.96Z"/>
          <path class="cls-176" d="M57.34,60.5c0,1.24,1.01,2.25,2.25,2.25s2.25-1.01,2.25-2.25-1.01-2.25-2.25-2.25-2.25,1.01-2.25,2.25Z"/>
          <path class="cls-174" d="M5.32,88.9c-1.62,0-2.93,1.31-2.93,2.93s1.31,2.93,2.93,2.93,2.93-1.31,2.93-2.93-1.31-2.93-2.93-2.93Z"/>
          <path class="cls-177" d="M5.32,63.43c1.62,0,2.93-1.31,2.93-2.93s-1.31-2.93-2.93-2.93-2.93,1.31-2.93,2.93,1.31,2.93,2.93,2.93Z"/>
          <path class="cls-172" d="M358.07,9.82c-2.03,0-3.68,1.65-3.68,3.68s1.65,3.68,3.68,3.68,3.68-1.65,3.68-3.68-1.65-3.68-3.68-3.68Z"/>
          <path class="cls-173" d="M358.07,47.44c1.44,0,2.61-1.17,2.61-2.61s-1.17-2.61-2.61-2.61-2.61,1.17-2.61,2.61,1.17,2.61,2.61,2.61Z"/>
          <path class="cls-171" d="M330.94,57.53c-1.64,0-2.97,1.33-2.97,2.97s1.33,2.97,2.97,2.97,2.97-1.33,2.97-2.97-1.33-2.97-2.97-2.97Z"/>
          <path class="cls-180" d="M300.41,44.84c0,1.87,1.52,3.39,3.39,3.39s3.39-1.52,3.39-3.39-1.52-3.39-3.39-3.39-3.39,1.52-3.39,3.39Z"/>
          <path class="cls-178" d="M276.67-4.83c-1.47,0-2.67,1.19-2.67,2.67s1.19,2.67,2.67,2.67,2.67-1.19,2.67-2.67-1.19-2.67-2.67-2.67Z"/>
          <circle class="cls-179" cx="249.53" cy="13.5" r="2.82"/>
          <path class="cls-167" d="M86.73,42.51c-1.29,0-2.33,1.04-2.33,2.33s1.04,2.33,2.33,2.33,2.33-1.04,2.33-2.33-1.04-2.33-2.33-2.33Z"/>
          <circle class="cls-165" cx="32.46" cy="44.84" r="2.58"/>
          <path class="cls-166" d="M330.94,1.36c1.94,0,3.52-1.58,3.52-3.52s-1.58-3.52-3.52-3.52-3.52,1.58-3.52,3.52,1.58,3.52,3.52,3.52Z"/>
          <circle class="cls-162" cx="303.8" cy="13.5" r="1.57"/>
          <path class="cls-163" d="M86.73,16.11c1.44,0,2.61-1.17,2.61-2.61s-1.17-2.61-2.61-2.61-2.61,1.17-2.61,2.61,1.17,2.61,2.61,2.61Z"/>
          <path class="cls-168" d="M32.46,16.22c1.5,0,2.71-1.21,2.71-2.71s-1.21-2.71-2.71-2.71-2.71,1.21-2.71,2.71,1.21,2.71,2.71,2.71Z"/>
          <path class="cls-169" d="M5.32,1.05c1.77,0,3.21-1.44,3.21-3.21s-1.44-3.21-3.21-3.21-3.21,1.44-3.21,3.21,1.44,3.21,3.21,3.21Z"/>
        </g>
      </g>
    </g>
    <rect class="cls-164" y="92.75" width="396" height="195.25"/>
  </g>
</svg>